<svg width="246" height="139" viewBox="0 0 246 139" fill="none"
  xmlns="http://www.w3.org/2000/svg">
  <g id="Frame 2">
    <g id="Frame 4">
      <g id="Vector">
        <path d="M189.5 135C199.165 135 207 127.165 207 117.5C207 107.835 199.165 100 189.5 100C179.835 100 172 107.835 172 117.5C172 127.165 179.835 135 189.5 135Z" fill="#F5EFFF"/>
        <path d="M189.5 128C195.299 128 200 123.299 200 117.5C200 111.701 195.299 107 189.5 107C183.701 107 179 111.701 179 117.5C179 123.299 183.701 128 189.5 128Z" fill="#F5EFFF"/>
        <path d="M189.5 121C191.433 121 193 119.433 193 117.5C193 115.567 191.433 114 189.5 114C187.567 114 186 115.567 186 117.5C186 119.433 187.567 121 189.5 121Z" fill="#F5EFFF"/>
        <path d="M179 117.5H186ZM193 117.5H200ZM184.25 126.593L187.75 120.531ZM191.25 114.469L194.75 108.407ZM194.75 126.593L191.25 120.531ZM187.75 114.469L184.25 108.407Z" fill="#F5EFFF"/>
        <path d="M200 117.5C200 123.299 195.299 128 189.5 128C183.701 128 179 123.299 179 117.5M200 117.5C200 111.701 195.299 107 189.5 107C183.701 107 179 111.701 179 117.5M200 117.5H193M179 117.5H186M193 117.5C193 119.433 191.433 121 189.5 121C187.567 121 186 119.433 186 117.5M193 117.5C193 115.567 191.433 114 189.5 114C187.567 114 186 115.567 186 117.5M184.25 126.593L187.75 120.531M191.25 114.469L194.75 108.407M194.75 126.593L191.25 120.531M187.75 114.469L184.25 108.407M207 117.5C207 127.165 199.165 135 189.5 135C179.835 135 172 127.165 172 117.5C172 107.835 179.835 100 189.5 100C199.165 100 207 107.835 207 117.5Z" stroke="#7161EF" stroke-width="3" stroke-linecap="round"/>
      </g>
    </g>
    <g id="Frame 3">
      <g id="Vector_2">
        <path d="M59.5 137C69.165 137 77 129.165 77 119.5C77 109.835 69.165 102 59.5 102C49.835 102 42 109.835 42 119.5C42 129.165 49.835 137 59.5 137Z" fill="#F5EFFF"/>
        <path d="M59.5 130C65.299 130 70 125.299 70 119.5C70 113.701 65.299 109 59.5 109C53.701 109 49 113.701 49 119.5C49 125.299 53.701 130 59.5 130Z" fill="#F5EFFF"/>
        <path d="M59.5 123C61.433 123 63 121.433 63 119.5C63 117.567 61.433 116 59.5 116C57.567 116 56 117.567 56 119.5C56 121.433 57.567 123 59.5 123Z" fill="#F5EFFF"/>
        <path d="M49 119.5H56ZM63 119.5H70ZM54.25 128.593L57.75 122.531ZM61.25 116.469L64.75 110.407ZM64.75 128.593L61.25 122.531ZM57.75 116.469L54.25 110.407Z" fill="#F5EFFF"/>
        <path d="M70 119.5C70 125.299 65.299 130 59.5 130C53.701 130 49 125.299 49 119.5M70 119.5C70 113.701 65.299 109 59.5 109C53.701 109 49 113.701 49 119.5M70 119.5H63M49 119.5H56M63 119.5C63 121.433 61.433 123 59.5 123C57.567 123 56 121.433 56 119.5M63 119.5C63 117.567 61.433 116 59.5 116C57.567 116 56 117.567 56 119.5M54.25 128.593L57.75 122.531M61.25 116.469L64.75 110.407M64.75 128.593L61.25 122.531M57.75 116.469L54.25 110.407M77 119.5C77 129.165 69.165 137 59.5 137C49.835 137 42 129.165 42 119.5C42 109.835 49.835 102 59.5 102C69.165 102 77 109.835 77 119.5Z" stroke="#7161EF" stroke-width="3" stroke-linecap="round"/>
      </g>
    </g>
    <g id="Group 3">
      <g id="Vector 3">
        <path d="M18.4681 116.5C15.546 114.657 11.9681 110.5 11.9681 110.5L11.9681 87L9.96821 85.5C9.96821 85.5 7.61694 87.7772 5.96821 88.5C0.782132 90.7737 0.573416 72.2793 5.96823 74C7.82852 74.5934 9.96819 76.5 9.96819 76.5L11.9681 74L11.9681 69.5C11.9681 69.5 11.8887 64.9619 12.2124 59.5C12.3369 57.4014 12.3079 55.5021 12.7916 53C14.8215 42.5 24.9682 33.5 24.9682 33.5H14.5C14.5 33.5 19.4476 24 24.9682 24H49.5L46.5 15.5H103H136C136 15.5 134.065 10.9341 136 8C137.976 5.00317 141.968 3.5 141.968 3.5H179.5C179.5 3.5 183.929 6.22211 185 8C186.814 11.0105 183 15.5 183 15.5H192L186.5 24C186.5 24 202 24 210.5 24.5C214.787 24.7522 217.968 32.5732 217.968 32.5732H206.5C206.5 32.5732 214.239 41.8075 217.968 50C221.697 58.1925 222.968 72.5 222.968 72.5L227.301 69.5C227.301 69.5 228.559 68.4822 229.468 68C233.091 66.0787 236.335 66.0993 239.968 68C241.807 68.9622 243.968 71.5 243.968 71.5V97C243.968 97 241.91 99.9461 239.968 101C236.708 102.77 233.763 102.704 230.468 101C229.061 100.272 227.301 98.4667 227.301 98.4667L222.968 95V110C222.968 121 211 121 211 121C211 121 211.401 117.696 211 114.5C210.528 110.742 209.139 107 207.5 107H170.5C170.5 107 168.462 111.134 168 114C167.596 116.506 168 120.5 168 120.5L82.5 119.5C82.5 119.5 81.4682 98 60.9682 97.5C37.4678 96.9268 37.9682 120 37.9682 120C37.9682 120 31.8966 120.402 27.9682 120C24.0349 119.598 21.8125 118.609 18.4681 116.5Z" fill="#F5EFFF"/>
        <path d="M18.4681 116.5L17.668 117.769L17.668 117.769L18.4681 116.5ZM82.5 119.5L81.0017 119.572C81.0398 120.365 81.6888 120.991 82.4825 121L82.5 119.5ZM168 120.5L167.982 122C168.41 122.005 168.819 121.828 169.107 121.512C169.395 121.197 169.535 120.774 169.492 120.349L168 120.5ZM168 114L166.519 113.761L166.519 113.761L168 114ZM211 121L209.511 120.819C209.459 121.245 209.593 121.673 209.877 121.995C210.162 122.316 210.571 122.5 211 122.5V121ZM192 15.5L193.259 16.3149C193.558 15.8535 193.58 15.2659 193.318 14.7832C193.055 14.3005 192.55 14 192 14V15.5ZM46.5 15.5V14C46.0132 14 45.5567 14.2362 45.2755 14.6336C44.9943 15.031 44.9235 15.5402 45.0855 15.9992L46.5 15.5ZM27.9682 120L27.8156 121.492L27.8156 121.492L27.9682 120ZM37.9682 120L38.0672 121.497C38.868 121.444 39.4852 120.77 39.4678 119.967L37.9682 120ZM72.9682 59.5V61C73.7966 61 74.4682 60.3284 74.4682 59.5H72.9682ZM72.9682 39H74.4682C74.4682 38.1716 73.7966 37.5 72.9682 37.5V39ZM12.7916 53L11.3189 52.7153L12.7916 53ZM12.2124 59.5L13.7098 59.5888L13.7098 59.5888L12.2124 59.5ZM230.468 111.5C231.297 111.5 231.968 110.828 231.968 110C231.968 109.172 231.297 108.5 230.468 108.5V111.5ZM216.468 108.5C215.64 108.5 214.968 109.172 214.968 110C214.968 110.828 215.64 111.5 216.468 111.5V108.5ZM230.468 101L231.157 99.6677L231.157 99.6677L230.468 101ZM239.968 101L239.253 99.6817L239.253 99.6817L239.968 101ZM243.968 97L245.198 97.8592C245.374 97.6072 245.468 97.3073 245.468 97H243.968ZM243.968 71.5H245.468C245.468 71.1437 245.341 70.7989 245.11 70.5276L243.968 71.5ZM239.968 68L239.273 69.3291L239.273 69.3291L239.968 68ZM229.468 68L230.171 69.3252L230.171 69.3252L229.468 68ZM231.468 72.5V71C230.64 71 229.968 71.6716 229.968 72.5H231.468ZM231.468 85H229.968C229.968 85.8284 230.64 86.5 231.468 86.5V85ZM238.968 85V86.5C239.797 86.5 240.468 85.8284 240.468 85H238.968ZM238.968 72.5H240.468C240.468 71.6716 239.797 71 238.968 71V72.5ZM7.46818 109C6.63975 109 5.96818 109.672 5.96818 110.5C5.96818 111.328 6.63975 112 7.46818 112V109ZM24.9682 112C25.7966 112 26.4682 111.328 26.4682 110.5C26.4682 109.672 25.7966 109 24.9682 109V112ZM85.9682 39V37.5C85.1398 37.5 84.4682 38.1716 84.4682 39H85.9682ZM85.9682 59.5H84.4682C84.4682 60.3284 85.1398 61 85.9682 61V59.5ZM141.968 59.5V61C142.366 61 142.748 60.842 143.029 60.5607C143.31 60.2794 143.468 59.8978 143.468 59.5L141.968 59.5ZM141.968 39L143.468 39C143.468 38.1716 142.797 37.5 141.968 37.5V39ZM153.468 39V37.5C152.64 37.5 151.968 38.1716 151.968 39H153.468ZM153.468 59.5H151.968C151.968 60.3284 152.64 61 153.468 61V59.5ZM198 59.5V61C198.423 61 198.827 60.8213 199.111 60.5079C199.395 60.1944 199.534 59.7755 199.493 59.3544L198 59.5ZM196 39L197.493 38.8544C197.418 38.086 196.772 37.5 196 37.5V39ZM35.4682 101V102.5C36.1284 102.5 36.7109 102.068 36.9032 101.437L35.4682 101ZM38.9681 89.5V88C38.3079 88 37.7253 88.4317 37.5331 89.0633L38.9681 89.5ZM79.9681 89.5V91C80.7965 91 81.4681 90.3284 81.4681 89.5H79.9681ZM61.4682 74.5C60.6398 74.5 59.9682 75.1716 59.9682 76C59.9682 76.8284 60.6398 77.5 61.4682 77.5V74.5ZM72.9682 77.5C73.7966 77.5 74.4682 76.8284 74.4682 76C74.4682 75.1716 73.7966 74.5 72.9682 74.5V77.5ZM11.9681 87L13.4681 87L13.4681 87L11.9681 87ZM170.5 107V105.5C169.929 105.5 169.407 105.824 169.155 106.337L170.5 107ZM60.9682 97.5L60.9316 98.9996L60.9316 98.9996L60.9682 97.5ZM5.96823 74L6.42406 72.571L6.42406 72.571L5.96823 74ZM5.96821 88.5L6.5705 89.8738L6.5705 89.8738L5.96821 88.5ZM136 8L134.748 7.17419L134.748 7.17419L136 8ZM141.968 3.5V2C141.788 2 141.609 2.0326 141.44 2.09623L141.968 3.5ZM179.5 3.5L180.285 2.22209C180.049 2.07688 179.777 2 179.5 2V3.5ZM185 8L183.715 8.77412L183.715 8.77412L185 8ZM212.468 88L213.646 87.0705L213.646 87.0705L212.468 88ZM88.5854 46.3111C87.9288 46.8162 87.806 47.7579 88.3111 48.4146C88.8162 49.0712 89.7579 49.194 90.4146 48.6889L88.5854 46.3111ZM96.9146 43.6889C97.5712 43.1838 97.694 42.2421 97.1889 41.5854C96.6838 40.9288 95.7421 40.806 95.0854 41.3111L96.9146 43.6889ZM89.5562 51.8341C88.9123 52.3554 88.8129 53.2999 89.3341 53.9438C89.8554 54.5877 90.7999 54.6871 91.4438 54.1659L89.5562 51.8341ZM101.944 45.6659C102.588 45.1446 102.687 44.2001 102.166 43.5562C101.645 42.9123 100.7 42.8129 100.056 43.3341L101.944 45.6659ZM124.556 53.3341C123.912 53.8554 123.813 54.7999 124.334 55.4438C124.855 56.0877 125.8 56.1871 126.444 55.6659L124.556 53.3341ZM136.944 47.1659C137.588 46.6446 137.687 45.7001 137.166 45.0562C136.645 44.4123 135.7 44.3129 135.056 44.8341L136.944 47.1659ZM130.585 54.8111C129.929 55.3162 129.806 56.2579 130.311 56.9146C130.816 57.5712 131.758 57.694 132.415 57.1889L130.585 54.8111ZM138.915 52.1889C139.571 51.6838 139.694 50.7421 139.189 50.0854C138.684 49.4288 137.742 49.306 137.085 49.8111L138.915 52.1889ZM156.512 48.8711C155.889 49.4167 155.826 50.3643 156.371 50.9878C156.917 51.6112 157.864 51.6744 158.488 51.1289L156.512 48.8711ZM166.488 44.1289C167.111 43.5833 167.174 42.6357 166.629 42.0122C166.083 41.3888 165.136 41.3256 164.512 41.8711L166.488 44.1289ZM182.04 53.8477C181.403 54.378 181.317 55.3239 181.848 55.9603C182.378 56.5967 183.324 56.6827 183.96 56.1523L182.04 53.8477ZM192.96 48.6523C193.597 48.122 193.683 47.1761 193.152 46.5397C192.622 45.9033 191.676 45.8173 191.04 46.3477L192.96 48.6523ZM187.491 54.8901C186.878 55.4474 186.833 56.396 187.39 57.009C187.947 57.622 188.896 57.6672 189.509 57.1099L187.491 54.8901ZM195.009 52.1099C195.622 51.5527 195.667 50.604 195.11 49.991C194.553 49.378 193.604 49.3328 192.991 49.8901L195.009 52.1099ZM160.012 51.3711C159.389 51.9167 159.326 52.8643 159.871 53.4878C160.417 54.1112 161.364 54.1744 161.988 53.6289L160.012 51.3711ZM169.988 46.6289C170.611 46.0833 170.674 45.1357 170.129 44.5122C169.583 43.8888 168.636 43.8256 168.012 44.3711L169.988 46.6289ZM204.5 48.5C203.672 48.5 203 49.1716 203 50C203 50.8284 203.672 51.5 204.5 51.5V48.5ZM214 51.5C214.828 51.5 215.5 50.8284 215.5 50C215.5 49.1716 214.828 48.5 214 48.5V51.5ZM204.5 53.5C203.672 53.5 203 54.1716 203 55C203 55.8284 203.672 56.5 204.5 56.5V53.5ZM214 56.5C214.828 56.5 215.5 55.8284 215.5 55C215.5 54.1716 214.828 53.5 214 53.5V56.5ZM204.5 58C203.672 58 203 58.6716 203 59.5C203 60.3284 203.672 61 204.5 61V58ZM214 61C214.828 61 215.5 60.3284 215.5 59.5C215.5 58.6716 214.828 58 214 58V61ZM206.5 32.5732L206.5 31.0732L206.489 31.0733L206.5 32.5732ZM217.968 32.5732V34.0732C218.467 34.0732 218.934 33.8248 219.213 33.4106C219.491 32.9964 219.546 32.4706 219.358 32.0082L217.968 32.5732ZM210.5 24.5L210.412 25.9974L210.412 25.9974L210.5 24.5ZM14.5 33.5L13.1696 32.8071C12.9274 33.2721 12.9456 33.8298 13.2176 34.278C13.4895 34.7263 13.9757 35 14.5 35V33.5ZM211 114.5L212.488 114.313L212.488 114.313L211 114.5ZM11.9681 110.5C10.8312 111.478 10.8313 111.479 10.8314 111.479C10.8314 111.479 10.8316 111.479 10.8317 111.479C10.8319 111.479 10.8322 111.48 10.8325 111.48C10.8332 111.481 10.8341 111.482 10.8352 111.483C10.8374 111.486 10.8405 111.489 10.8444 111.494C10.8523 111.503 10.8635 111.516 10.878 111.532C10.907 111.566 10.949 111.614 11.0031 111.675C11.1112 111.797 11.2675 111.973 11.4637 112.188C11.8556 112.619 12.4092 113.212 13.0575 113.866C14.3311 115.149 16.0552 116.752 17.668 117.769L19.2682 115.231C17.9589 114.406 16.433 113.008 15.1871 111.753C14.5757 111.136 14.0522 110.575 13.6819 110.169C13.4971 109.965 13.351 109.802 13.252 109.689C13.2025 109.633 13.1649 109.59 13.14 109.562C13.1276 109.548 13.1184 109.537 13.1125 109.53C13.1096 109.527 13.1075 109.524 13.1062 109.523C13.1056 109.522 13.1052 109.522 13.105 109.521C13.1049 109.521 13.1048 109.521 13.1048 109.521C13.1048 109.521 13.1049 109.521 13.1049 109.521C13.105 109.521 13.105 109.522 11.9681 110.5ZM82.4825 121L167.982 122L168.018 119L82.5175 118L82.4825 121ZM168 120.5C169.492 120.349 169.492 120.349 169.492 120.349C169.492 120.349 169.492 120.349 169.492 120.349C169.492 120.349 169.492 120.349 169.492 120.349C169.492 120.349 169.492 120.349 169.492 120.348C169.492 120.347 169.492 120.344 169.492 120.341C169.491 120.335 169.49 120.325 169.489 120.311C169.486 120.284 169.482 120.243 169.477 120.189C169.468 120.081 169.454 119.922 169.439 119.723C169.408 119.323 169.372 118.765 169.347 118.132C169.297 116.838 169.304 115.337 169.481 114.239L166.519 113.761C166.292 115.169 166.298 116.918 166.35 118.248C166.376 118.926 166.415 119.523 166.448 119.951C166.464 120.165 166.479 120.338 166.489 120.458C166.495 120.518 166.499 120.565 166.502 120.598C166.504 120.614 166.505 120.627 166.506 120.636C166.507 120.64 166.507 120.644 166.507 120.646C166.507 120.648 166.507 120.649 166.507 120.649C166.507 120.65 166.508 120.65 166.508 120.65C166.508 120.651 166.508 120.651 166.508 120.651C166.508 120.651 166.508 120.651 168 120.5ZM211 121C211 122.5 211.001 122.5 211.001 122.5C211.002 122.5 211.003 122.5 211.003 122.5C211.005 122.5 211.006 122.5 211.008 122.5C211.011 122.5 211.015 122.5 211.02 122.5C211.029 122.5 211.041 122.5 211.057 122.5C211.087 122.499 211.128 122.498 211.18 122.497C211.284 122.493 211.43 122.487 211.613 122.475C211.976 122.451 212.487 122.404 213.097 122.311C214.309 122.125 215.95 121.751 217.61 120.988C219.274 120.224 221.001 119.048 222.312 117.24C223.635 115.416 224.468 113.04 224.468 110H221.468C221.468 112.46 220.805 114.209 219.884 115.479C218.951 116.765 217.686 117.651 216.358 118.262C215.026 118.874 213.675 119.187 212.643 119.345C212.131 119.424 211.707 119.463 211.416 119.482C211.271 119.491 211.16 119.496 211.088 119.498C211.053 119.499 211.027 119.5 211.012 119.5C211.005 119.5 211 119.5 210.998 119.5C210.997 119.5 210.996 119.5 210.997 119.5C210.997 119.5 210.997 119.5 210.998 119.5C210.998 119.5 210.999 119.5 210.999 119.5C210.999 119.5 211 119.5 211 121ZM187.759 24.8149L193.259 16.3149L190.741 14.6851L185.241 23.1851L187.759 24.8149ZM45.0855 15.9992L48.0855 24.4992L50.9145 23.5008L47.9145 15.0008L45.0855 15.9992ZM222.968 72.5C224.462 72.3673 224.462 72.367 224.462 72.3668C224.462 72.3666 224.462 72.3663 224.462 72.366C224.462 72.3654 224.462 72.3645 224.462 72.3634C224.462 72.3613 224.461 72.3583 224.461 72.3544C224.46 72.3467 224.459 72.3355 224.458 72.321C224.455 72.292 224.451 72.2496 224.446 72.1944C224.436 72.0841 224.42 71.9227 224.398 71.7152C224.355 71.3003 224.29 70.7007 224.2 69.9566C224.021 68.4692 223.742 66.4 223.345 64.0703C222.557 59.4477 221.283 53.6613 219.333 49.3786L216.603 50.6214C218.382 54.5312 219.607 59.9948 220.388 64.5741C220.775 66.8453 221.047 68.865 221.222 70.3163C221.31 71.0415 221.373 71.6238 221.414 72.0233C221.435 72.223 221.45 72.377 221.46 72.4803C221.465 72.5319 221.468 72.5708 221.471 72.5964C221.472 72.6093 221.473 72.6187 221.473 72.6248C221.474 72.6279 221.474 72.6301 221.474 72.6314C221.474 72.632 221.474 72.6325 221.474 72.6327C221.474 72.6328 221.474 72.6329 221.474 72.6329C221.474 72.6329 221.474 72.6328 222.968 72.5ZM17.668 117.769C21.1458 119.962 23.5887 121.06 27.8156 121.492L28.1208 118.508C24.4812 118.136 22.4791 117.256 19.2682 115.231L17.668 117.769ZM27.8156 121.492C29.8788 121.703 32.4572 121.701 34.4788 121.65C35.4983 121.625 36.3927 121.586 37.0327 121.555C37.3528 121.539 37.6098 121.524 37.7875 121.514C37.8764 121.509 37.9455 121.504 37.9928 121.501C38.0164 121.5 38.0346 121.499 38.0471 121.498C38.0533 121.498 38.0581 121.497 38.0615 121.497C38.0632 121.497 38.0645 121.497 38.0655 121.497C38.0659 121.497 38.0663 121.497 38.0666 121.497C38.0667 121.497 38.0669 121.497 38.067 121.497C38.0671 121.497 38.0672 121.497 37.9682 120C37.8692 118.503 37.8692 118.503 37.8692 118.503C37.8692 118.503 37.8692 118.503 37.8692 118.503C37.8691 118.503 37.869 118.503 37.8687 118.503C37.8682 118.503 37.8673 118.503 37.866 118.503C37.8635 118.504 37.8596 118.504 37.8542 118.504C37.8435 118.505 37.8271 118.506 37.8053 118.507C37.7617 118.51 37.6965 118.514 37.6117 118.519C37.442 118.529 37.194 118.543 36.8836 118.558C36.2624 118.589 35.3933 118.626 34.4039 118.651C32.4076 118.701 29.986 118.699 28.1208 118.508L27.8156 121.492ZM11.9681 71H79.9681V68H11.9681V71ZM79.9681 71H183.968V68H79.9681V71ZM28.9682 37.5C26.3231 37.5 24.2131 39.2389 22.6766 41.3092C21.1129 43.4161 19.916 46.1546 19.1201 48.821C18.3246 51.4862 17.8911 54.2097 17.9396 56.3311C17.9634 57.3731 18.1052 58.4064 18.4768 59.2337C18.8626 60.0925 19.6527 61 20.9682 61V58C21.2838 58 21.3313 58.2669 21.2135 58.0046C21.0815 57.7108 20.9589 57.1425 20.9388 56.2626C20.8994 54.5403 21.2606 52.1388 21.9948 49.679C22.7286 47.2204 23.7966 44.8339 25.0856 43.0971C26.4018 41.3236 27.7323 40.5 28.9682 40.5V37.5ZM20.9682 61H72.9682V58H20.9682V61ZM74.4682 59.5V39H71.4682V59.5H74.4682ZM72.9682 37.5H28.9682V40.5H72.9682V37.5ZM11.3189 52.7153C10.8103 55.3464 10.8331 57.4201 10.7151 59.4112L13.7098 59.5888C13.8406 57.3826 13.8056 55.6579 14.2644 53.2847L11.3189 52.7153ZM10.7151 59.4112C10.5514 62.1723 10.4897 64.6972 10.4689 66.5312C10.4585 67.4487 10.4583 68.1948 10.4608 68.7126C10.462 68.9715 10.4638 69.1735 10.4654 69.3115C10.4662 69.3805 10.4669 69.4334 10.4674 69.4695C10.4677 69.4876 10.4679 69.5014 10.4681 69.5109C10.4681 69.5156 10.4682 69.5193 10.4682 69.5219C10.4683 69.5232 10.4683 69.5242 10.4683 69.5249C10.4683 69.5253 10.4683 69.5256 10.4683 69.5258C10.4683 69.5259 10.4683 69.526 10.4683 69.5261C10.4683 69.5262 10.4683 69.5263 11.9681 69.5C13.4679 69.4738 13.4679 69.4738 13.4679 69.4738C13.4679 69.4738 13.4679 69.4739 13.4679 69.4738C13.4679 69.4738 13.4679 69.4737 13.4679 69.4735C13.4678 69.4731 13.4678 69.4725 13.4678 69.4715C13.4678 69.4697 13.4677 69.4668 13.4677 69.4628C13.4675 69.4548 13.4674 69.4424 13.4671 69.4259C13.4666 69.3929 13.466 69.343 13.4652 69.2772C13.4637 69.1456 13.4619 68.9504 13.4607 68.6986C13.4584 68.1948 13.4585 67.4649 13.4687 66.5652C13.4892 64.7646 13.5497 62.2895 13.7098 59.5888L10.7151 59.4112ZM103 14H46.5V17H103V14ZM222.968 111.5H230.468V108.5H222.968V111.5ZM222.968 108.5H216.468V111.5H222.968V108.5ZM224.468 110V95H221.468V110H224.468ZM224.468 95V72.5H221.468V95H224.468ZM229.779 102.332C231.583 103.265 233.376 103.793 235.223 103.803C237.075 103.813 238.874 103.301 240.684 102.318L239.253 99.6817C237.802 100.469 236.498 100.81 235.239 100.803C233.975 100.796 232.649 100.439 231.157 99.6677L229.779 102.332ZM240.684 102.318C241.905 101.656 243.051 100.48 243.827 99.5908C244.232 99.1263 244.571 98.6987 244.809 98.3867C244.928 98.2303 245.023 98.1018 245.089 98.0109C245.122 97.9654 245.148 97.9292 245.166 97.9035C245.176 97.8907 245.183 97.8805 245.188 97.873C245.191 97.8693 245.193 97.8663 245.194 97.864C245.195 97.8628 245.196 97.8618 245.196 97.861C245.197 97.8606 245.197 97.8603 245.197 97.86C245.197 97.8598 245.197 97.8596 245.197 97.8595C245.198 97.8593 245.198 97.8592 243.968 97C242.739 96.1409 242.739 96.1407 242.739 96.1406C242.739 96.1405 242.739 96.1404 242.739 96.1403C242.739 96.1402 242.739 96.1401 242.739 96.1401C242.739 96.14 242.739 96.1401 242.739 96.1403C242.739 96.1409 242.738 96.1421 242.736 96.144C242.734 96.1477 242.729 96.1542 242.723 96.1632C242.71 96.1812 242.69 96.2093 242.663 96.2464C242.609 96.3207 242.528 96.4306 242.424 96.5669C242.215 96.8402 241.918 97.215 241.566 97.6188C240.827 98.4663 239.973 99.2905 239.253 99.6817L240.684 102.318ZM245.468 97V71.5H242.468V97H245.468ZM243.968 71.5C245.11 70.5276 245.11 70.5275 245.11 70.5273C245.11 70.5272 245.11 70.5271 245.11 70.527C245.11 70.5267 245.109 70.5264 245.109 70.5261C245.108 70.5254 245.108 70.5246 245.107 70.5237C245.105 70.5217 245.103 70.5192 245.1 70.516C245.095 70.5098 245.088 70.5011 245.078 70.4902C245.059 70.4684 245.032 70.4375 244.998 70.3985C244.93 70.3207 244.832 70.2106 244.709 70.0762C244.464 69.8082 244.117 69.4404 243.708 69.0395C242.92 68.2679 241.79 67.26 240.663 66.6709L239.273 69.3291C239.986 69.7021 240.855 70.4443 241.608 71.1821C241.969 71.536 242.277 71.8628 242.495 72.1007C242.603 72.2193 242.688 72.3149 242.745 72.3796C242.774 72.412 242.795 72.4366 242.809 72.4524C242.816 72.4603 242.821 72.466 242.823 72.4694C242.825 72.4711 242.826 72.4722 242.826 72.4727C242.827 72.4729 242.827 72.4731 242.827 72.473C242.827 72.473 242.826 72.4729 242.826 72.4728C242.826 72.4728 242.826 72.4727 242.826 72.4727C242.826 72.4726 242.826 72.4724 243.968 71.5ZM240.663 66.6709C238.683 65.6349 236.727 65.0697 234.716 65.0667C232.705 65.0637 230.747 65.6238 228.765 66.6749L230.171 69.3252C231.812 68.4549 233.288 68.0646 234.712 68.0667C236.138 68.0689 237.62 68.4644 239.273 69.3291L240.663 66.6709ZM228.765 66.6749C228.209 66.9701 227.594 67.3998 227.155 67.7224C226.928 67.8898 226.731 68.0409 226.59 68.1503C226.52 68.2052 226.463 68.25 226.423 68.2816C226.404 68.2974 226.388 68.3099 226.377 68.3188C226.371 68.3232 226.367 68.3267 226.364 68.3293C226.362 68.3306 226.361 68.3316 226.36 68.3324C226.359 68.3328 226.359 68.3331 226.359 68.3334C226.358 68.3336 226.358 68.3337 226.358 68.3338C226.358 68.3338 226.358 68.3339 226.358 68.3339C226.358 68.334 226.358 68.3341 227.301 69.5C228.245 70.666 228.245 70.666 228.245 70.6661C228.245 70.6661 228.245 70.6661 228.245 70.6662C228.245 70.6662 228.245 70.6662 228.245 70.6662C228.245 70.6663 228.245 70.6662 228.245 70.6661C228.245 70.666 228.246 70.6655 228.247 70.6649C228.248 70.6636 228.251 70.6613 228.255 70.6582C228.263 70.6519 228.275 70.6421 228.291 70.6291C228.324 70.6032 228.373 70.5647 228.434 70.5166C228.558 70.4201 228.732 70.2866 228.932 70.1393C229.35 69.8325 229.818 69.5122 230.171 69.3252L228.765 66.6749ZM226.448 68.2667L222.114 71.2667L223.822 73.7333L228.155 70.7333L226.448 68.2667ZM222.031 96.1713L226.364 99.638L228.239 97.2954L223.905 93.8287L222.031 96.1713ZM227.301 98.4667C226.227 99.5137 226.227 99.5138 226.228 99.5139C226.228 99.5139 226.228 99.5141 226.228 99.5142C226.228 99.5144 226.228 99.5146 226.228 99.5148C226.229 99.5153 226.23 99.5159 226.23 99.5167C226.232 99.5181 226.233 99.52 226.236 99.5223C226.24 99.5269 226.246 99.5331 226.254 99.5411C226.27 99.5569 226.292 99.5791 226.32 99.6072C226.376 99.6632 226.456 99.7423 226.556 99.839C226.756 100.032 227.037 100.296 227.366 100.586C227.998 101.142 228.904 101.879 229.779 102.332L231.157 99.6677C230.626 99.393 229.949 98.8633 229.349 98.3348C229.062 98.0823 228.815 97.8501 228.641 97.6815C228.554 97.5974 228.485 97.5298 228.44 97.4842C228.417 97.4615 228.4 97.4442 228.389 97.4332C228.384 97.4277 228.38 97.4238 228.377 97.4215C228.376 97.4204 228.376 97.4197 228.375 97.4194C228.375 97.4192 228.375 97.4192 228.375 97.4192C228.375 97.4192 228.375 97.4193 228.375 97.4194C228.375 97.4194 228.375 97.4195 228.375 97.4195C228.376 97.4196 228.376 97.4197 227.301 98.4667ZM225.801 69.5V98.4667H228.801V69.5H225.801ZM229.968 72.5V85H232.968V72.5H229.968ZM231.468 86.5H238.968V83.5H231.468V86.5ZM240.468 85V72.5H237.468V85H240.468ZM238.968 71H231.468V74H238.968V71ZM7.46818 112H11.9681V109H7.46818V112ZM11.9681 112H24.9682V109H11.9681V112ZM84.4682 39V59.5H87.4682V39H84.4682ZM85.9682 61H141.968V58H85.9682V61ZM143.468 59.5L143.468 39L140.468 39L140.468 59.5L143.468 59.5ZM141.968 37.5H85.9682V40.5H141.968V37.5ZM151.968 39V59.5H154.968V39H151.968ZM153.468 61H198V58H153.468V61ZM199.493 59.3544L197.493 38.8544L194.507 39.1457L196.507 59.6457L199.493 59.3544ZM196 37.5H153.468V40.5H196V37.5ZM12.7916 102.5H35.4682V99.5H12.7916V102.5ZM36.9032 101.437L40.4031 89.9368L37.5331 89.0633L34.0331 100.563L36.9032 101.437ZM38.9681 91H79.9681V88H38.9681V91ZM81.4681 89.5V69.5H78.4681V89.5H81.4681ZM81.4681 69.5V33.5H78.4681V69.5H81.4681ZM61.4682 77.5H72.9682V74.5H61.4682V77.5ZM10.4681 69.5L10.4681 74L13.4681 74L13.4681 69.5L10.4681 69.5ZM10.7968 73.063L8.79686 75.563L11.1395 77.437L13.1394 74.937L10.7968 73.063ZM8.46819 76.5L8.46821 85.5L11.4682 85.5L11.4682 76.5L8.46819 76.5ZM10.4681 74L10.4681 87L13.4681 87L13.4681 74L10.4681 74ZM10.4681 87L10.4681 110.5L13.4681 110.5L13.4681 87L10.4681 87ZM9.06817 86.7L11.0681 88.2L12.8681 85.8L10.8682 84.3L9.06817 86.7ZM169.481 114.239C169.683 112.983 170.253 111.365 170.812 109.991C171.086 109.32 171.346 108.734 171.538 108.316C171.633 108.107 171.712 107.942 171.765 107.829C171.792 107.773 171.813 107.73 171.826 107.702C171.833 107.688 171.838 107.678 171.842 107.671C171.843 107.668 171.844 107.666 171.845 107.664C171.845 107.664 171.845 107.663 171.846 107.663C171.846 107.663 171.846 107.663 171.846 107.663C171.846 107.663 171.846 107.663 171.846 107.663C171.845 107.663 171.845 107.663 170.5 107C169.155 106.337 169.154 106.337 169.154 106.337C169.154 106.337 169.154 106.337 169.154 106.338C169.154 106.338 169.154 106.338 169.154 106.339C169.153 106.339 169.153 106.34 169.152 106.342C169.151 106.344 169.149 106.348 169.147 106.353C169.142 106.362 169.136 106.375 169.128 106.392C169.111 106.426 169.088 106.475 169.058 106.537C168.998 106.662 168.914 106.842 168.811 107.066C168.606 107.513 168.328 108.139 168.034 108.859C167.46 110.269 166.779 112.151 166.519 113.761L169.481 114.239ZM170.5 108.5H207.5V105.5H170.5V108.5ZM37.9682 120C39.4678 119.967 39.4678 119.968 39.4679 119.969C39.4679 119.969 39.4679 119.969 39.4679 119.969C39.4679 119.97 39.4679 119.97 39.4679 119.969C39.4678 119.969 39.4678 119.966 39.4678 119.963C39.4677 119.956 39.4675 119.944 39.4674 119.926C39.4673 119.891 39.4673 119.835 39.4682 119.759C39.47 119.609 39.4756 119.381 39.4906 119.086C39.5207 118.497 39.5888 117.647 39.7409 116.624C40.0461 114.571 40.6836 111.867 42.0006 109.199C43.3138 106.539 45.2887 103.942 48.2681 102.038C51.2402 100.138 55.3121 98.8625 60.9316 98.9996L61.0048 96.0005C54.8741 95.8509 50.1959 97.2448 46.6523 99.51C43.1161 101.77 40.8098 104.834 39.3105 107.871C37.8151 110.9 37.1088 113.928 36.7735 116.183C36.6053 117.315 36.5288 118.262 36.4945 118.933C36.4774 119.269 36.4707 119.536 36.4684 119.723C36.4673 119.816 36.4672 119.89 36.4675 119.942C36.4676 119.968 36.4678 119.989 36.468 120.004C36.4681 120.011 36.4682 120.018 36.4683 120.022C36.4684 120.025 36.4684 120.027 36.4684 120.028C36.4685 120.029 36.4685 120.03 36.4685 120.031C36.4685 120.032 36.4685 120.033 37.9682 120ZM60.9316 98.9996C70.5184 99.2334 75.4629 104.313 78.0901 109.378C79.4191 111.94 80.1511 114.503 80.5493 116.436C80.7478 117.399 80.8617 118.196 80.9256 118.748C80.9575 119.023 80.9769 119.237 80.9882 119.378C80.9938 119.448 80.9973 119.5 80.9994 119.533C81.0005 119.55 81.0011 119.561 81.0015 119.568C81.0017 119.571 81.0018 119.573 81.0018 119.574C81.0018 119.574 81.0018 119.574 81.0018 119.574C81.0018 119.574 81.0018 119.573 81.0018 119.573C81.0018 119.573 81.0017 119.572 82.5 119.5C83.9983 119.428 83.9982 119.427 83.9982 119.426C83.9982 119.426 83.9981 119.425 83.9981 119.424C83.998 119.423 83.9979 119.421 83.9978 119.419C83.9976 119.414 83.9973 119.408 83.9969 119.401C83.9961 119.387 83.995 119.368 83.9934 119.343C83.9903 119.295 83.9856 119.226 83.9787 119.139C83.9648 118.965 83.942 118.716 83.9056 118.403C83.8331 117.776 83.7062 116.891 83.4876 115.83C83.0517 113.715 82.2445 110.872 80.7531 107.997C77.7394 102.187 71.918 96.2666 61.0048 96.0005L60.9316 98.9996ZM9.96819 76.5C10.9661 75.3801 10.9659 75.38 10.9658 75.3798C10.9657 75.3798 10.9655 75.3796 10.9654 75.3795C10.9651 75.3793 10.9648 75.379 10.9645 75.3787C10.9638 75.3781 10.963 75.3774 10.9621 75.3766C10.9602 75.3749 10.9578 75.3728 10.9549 75.3702C10.9491 75.3651 10.9413 75.3582 10.9314 75.3496C10.9118 75.3324 10.8841 75.3083 10.8491 75.2783C10.7792 75.2183 10.6795 75.1341 10.555 75.0322C10.3067 74.8289 9.95552 74.5518 9.54046 74.2539C8.74127 73.6803 7.58561 72.9414 6.42406 72.571L5.51241 75.4291C6.21114 75.652 7.05546 76.1631 7.79118 76.6911C8.14357 76.9441 8.44359 77.1807 8.6546 77.3535C8.75973 77.4396 8.84178 77.5089 8.89611 77.5555C8.92325 77.5788 8.9434 77.5963 8.95597 77.6073C8.96225 77.6128 8.96664 77.6167 8.96905 77.6188C8.97025 77.6199 8.97096 77.6205 8.97117 77.6207C8.97127 77.6208 8.97125 77.6208 8.9711 77.6206C8.97103 77.6206 8.97092 77.6205 8.97078 77.6204C8.97071 77.6203 8.97059 77.6202 8.97055 77.6202C8.97042 77.62 8.97027 77.6199 9.96819 76.5ZM6.42406 72.571C5.32373 72.22 4.25926 72.3792 3.36951 72.9776C2.54789 73.5302 1.98537 74.3802 1.59606 75.2418C0.815781 76.9687 0.486629 79.2871 0.500416 81.4669C0.514178 83.6427 0.871286 85.9347 1.66891 87.5997C2.06584 88.4283 2.64717 89.2595 3.50602 89.7571C4.44985 90.3039 5.52727 90.3312 6.5705 89.8738L5.36591 87.1262C5.11263 87.2373 5.04907 87.184 5.00991 87.1613C4.88577 87.0894 4.6421 86.8622 4.37447 86.3036C3.84296 85.1941 3.51268 83.3964 3.50036 81.4479C3.48806 79.5033 3.79412 77.6629 4.32993 76.4771C4.59867 75.8823 4.86442 75.5876 5.04373 75.467C5.15491 75.3922 5.26403 75.3499 5.51241 75.4291L6.42406 72.571ZM6.5705 89.8738C7.60554 89.42 8.74601 88.5466 9.54509 87.8827C9.96427 87.5344 10.3277 87.2111 10.5864 86.9749C10.7162 86.8564 10.8204 86.7591 10.8932 86.6905C10.9296 86.6561 10.9581 86.6289 10.9781 86.6098C10.9881 86.6002 10.996 86.5927 11.0016 86.5873C11.0045 86.5846 11.0067 86.5824 11.0084 86.5808C11.0092 86.5799 11.0099 86.5793 11.0105 86.5787C11.0108 86.5785 11.011 86.5782 11.0112 86.578C11.0113 86.5779 11.0115 86.5778 11.0115 86.5777C11.0116 86.5776 11.0117 86.5775 9.96821 85.5C8.92466 84.4225 8.92476 84.4224 8.92484 84.4223C8.92486 84.4223 8.92493 84.4223 8.92496 84.4222C8.92503 84.4222 8.92505 84.4221 8.92505 84.4221C8.92503 84.4222 8.92488 84.4223 8.92459 84.4226C8.924 84.4231 8.92286 84.4242 8.92118 84.4259C8.91781 84.4291 8.91227 84.4344 8.90465 84.4417C8.8894 84.4563 8.86585 84.4787 8.83474 84.5081C8.77247 84.5668 8.68016 84.653 8.56367 84.7594C8.33004 84.9727 8.0026 85.2639 7.62787 85.5752C6.83913 86.2306 5.97961 86.8572 5.36591 87.1262L6.5705 89.8738ZM136 14H103V17H136V14ZM143.196 23.138L137.228 14.6381L134.772 16.362L140.741 24.862L143.196 23.138ZM136 15.5C137.381 14.9147 137.381 14.9151 137.381 14.9154C137.381 14.9155 137.382 14.9159 137.382 14.9161C137.382 14.9165 137.382 14.9168 137.382 14.9171C137.382 14.9176 137.382 14.9179 137.382 14.9178C137.382 14.9178 137.382 14.9167 137.381 14.9146C137.379 14.9104 137.376 14.902 137.371 14.8896C137.361 14.8649 137.345 14.8245 137.325 14.7699C137.283 14.6604 137.224 14.4948 137.157 14.2849C137.022 13.8623 136.862 13.2747 136.755 12.6128C136.533 11.2243 136.598 9.81777 137.252 8.82582L134.748 7.17419C133.467 9.11635 133.532 11.4598 133.793 13.0878C133.929 13.9342 134.131 14.6714 134.299 15.1966C134.383 15.4606 134.46 15.6747 134.517 15.8263C134.545 15.9022 134.569 15.9628 134.587 16.0064C134.595 16.0282 134.602 16.0458 134.608 16.059C134.611 16.0656 134.613 16.0711 134.615 16.0755C134.616 16.0777 134.617 16.0796 134.617 16.0813C134.618 16.0821 134.618 16.0828 134.618 16.0835C134.618 16.0838 134.618 16.0843 134.619 16.0845C134.619 16.0849 134.619 16.0853 136 15.5ZM137.252 8.82582C138.064 7.59481 139.341 6.60916 140.5 5.91088C141.067 5.56914 141.578 5.31252 141.944 5.14265C142.127 5.05798 142.272 4.9956 142.368 4.95563C142.416 4.93567 142.452 4.92135 142.474 4.91269C142.485 4.90836 142.492 4.90545 142.496 4.90396C142.498 4.90322 142.499 4.90283 142.499 4.9028C142.499 4.90278 142.499 4.90286 142.499 4.90302C142.499 4.9031 142.498 4.9032 142.498 4.90333C142.498 4.90339 142.497 4.9035 142.497 4.90353C142.497 4.90365 142.497 4.90377 141.968 3.5C141.44 2.09623 141.439 2.09636 141.439 2.0965C141.439 2.09656 141.438 2.0967 141.438 2.09681C141.437 2.09703 141.437 2.09727 141.436 2.09753C141.435 2.09806 141.433 2.09869 141.431 2.0994C141.427 2.10084 141.423 2.10265 141.417 2.10484C141.406 2.10923 141.39 2.11513 141.372 2.12254C141.334 2.13736 141.282 2.15826 141.217 2.18525C141.087 2.23919 140.905 2.31766 140.683 2.42075C140.239 2.62637 139.629 2.93284 138.951 3.3415C137.619 4.14401 135.912 5.40836 134.748 7.17419L137.252 8.82582ZM141.968 5H179.5V2H141.968V5ZM179.5 3.5C178.715 4.77791 178.714 4.77785 178.714 4.7778C178.714 4.7778 178.714 4.77776 178.714 4.77776C178.714 4.77774 178.714 4.77777 178.714 4.77784C178.715 4.77798 178.715 4.77829 178.716 4.77875C178.717 4.77968 178.72 4.78125 178.724 4.78346C178.731 4.78787 178.742 4.7948 178.757 4.80415C178.787 4.82284 178.832 4.85116 178.891 4.88821C179.008 4.96235 179.178 5.07126 179.387 5.20782C179.805 5.48165 180.371 5.86326 180.966 6.29633C181.564 6.73165 182.175 7.20613 182.69 7.66573C183.229 8.14685 183.567 8.52878 183.715 8.77412L186.285 7.22589C185.897 6.58228 185.281 5.95723 184.688 5.42792C184.071 4.8771 183.373 4.33769 182.731 3.87025C182.085 3.40056 181.477 2.99053 181.031 2.6984C180.807 2.55198 180.623 2.43433 180.494 2.35267C180.43 2.31182 180.379 2.27991 180.343 2.25786C180.325 2.24683 180.312 2.23826 180.302 2.23227C180.297 2.22927 180.293 2.22691 180.291 2.22521C180.289 2.22436 180.288 2.22367 180.287 2.22315C180.287 2.22289 180.286 2.22267 180.286 2.22249C180.286 2.2224 180.286 2.2223 180.286 2.22226C180.286 2.22217 180.285 2.22209 179.5 3.5ZM192 14H183V17H192V14ZM183 14H136V17H183V14ZM183.715 8.77412C184.196 9.57196 184.025 10.7917 183.331 12.2245C183.013 12.8799 182.639 13.464 182.341 13.8884C182.193 14.0987 182.066 14.2651 181.979 14.3764C181.936 14.4319 181.902 14.4733 181.881 14.4993C181.871 14.5123 181.863 14.5213 181.859 14.5263C181.857 14.5288 181.856 14.5303 181.855 14.5307C181.855 14.5309 181.855 14.5309 181.855 14.5306C181.855 14.5304 181.856 14.5302 181.856 14.5299C181.856 14.5298 181.856 14.5295 181.856 14.5294C181.857 14.5292 181.857 14.5289 183 15.5C184.143 16.4712 184.143 16.4708 184.144 16.4705C184.144 16.4703 184.144 16.47 184.144 16.4697C184.145 16.4691 184.145 16.4685 184.146 16.4678C184.147 16.4664 184.149 16.4647 184.15 16.4628C184.154 16.4588 184.158 16.4538 184.163 16.4477C184.173 16.4356 184.187 16.4191 184.204 16.3984C184.237 16.3571 184.284 16.2992 184.341 16.2261C184.456 16.08 184.613 15.8722 184.794 15.6146C185.154 15.1031 185.621 14.3767 186.03 13.5334C186.789 11.9688 187.618 9.43856 186.285 7.22589L183.715 8.77412ZM141.968 25.5H176.5V22.5H141.968V25.5ZM176.5 25.5H186.5V22.5H176.5V25.5ZM181.808 14.5888L175.308 23.0888L177.692 24.9112L184.192 16.4112L181.808 14.5888ZM49.5 25.5H141.968V22.5H49.5V25.5ZM222.968 110C224.427 109.65 224.427 109.65 224.427 109.649C224.426 109.649 224.426 109.649 224.426 109.648C224.426 109.648 224.426 109.647 224.426 109.645C224.425 109.643 224.424 109.64 224.423 109.636C224.422 109.629 224.419 109.618 224.416 109.605C224.409 109.578 224.399 109.539 224.387 109.489C224.361 109.388 224.324 109.243 224.273 109.056C224.173 108.682 224.022 108.141 223.818 107.465C223.41 106.114 222.788 104.216 221.928 102.016C220.212 97.6305 217.522 91.9809 213.646 87.0705L211.291 88.9295C214.914 93.5191 217.475 98.8695 219.134 103.109C219.961 105.222 220.557 107.043 220.946 108.332C221.141 108.976 221.283 109.486 221.376 109.833C221.422 110.006 221.456 110.139 221.479 110.226C221.49 110.27 221.498 110.302 221.503 110.323C221.505 110.333 221.507 110.341 221.508 110.346C221.509 110.348 221.509 110.349 221.51 110.35C221.51 110.35 221.51 110.351 221.51 110.351C221.51 110.351 221.51 110.35 221.51 110.35C221.51 110.35 221.51 110.35 222.968 110ZM213.646 87.0705C210.017 82.4747 204.244 77.7445 198.66 74.1722C195.858 72.3798 193.066 70.8545 190.568 69.7716C188.117 68.7088 185.788 68 183.968 68V71C185.149 71 187.01 71.499 189.375 72.5241C191.693 73.529 194.342 74.9715 197.043 76.6994C202.465 80.1676 207.942 84.6875 211.291 88.9295L213.646 87.0705ZM90.4146 48.6889L96.9146 43.6889L95.0854 41.3111L88.5854 46.3111L90.4146 48.6889ZM91.4438 54.1659L101.944 45.6659L100.056 43.3341L89.5562 51.8341L91.4438 54.1659ZM126.444 55.6659L136.944 47.1659L135.056 44.8341L124.556 53.3341L126.444 55.6659ZM132.415 57.1889L138.915 52.1889L137.085 49.8111L130.585 54.8111L132.415 57.1889ZM158.488 51.1289L166.488 44.1289L164.512 41.8711L156.512 48.8711L158.488 51.1289ZM183.96 56.1523L192.96 48.6523L191.04 46.3477L182.04 53.8477L183.96 56.1523ZM189.509 57.1099L195.009 52.1099L192.991 49.8901L187.491 54.8901L189.509 57.1099ZM161.988 53.6289L169.988 46.6289L168.012 44.3711L160.012 51.3711L161.988 53.6289ZM204.5 51.5H214V48.5H204.5V51.5ZM204.5 56.5H214V53.5H204.5V56.5ZM204.5 61H214V58H204.5V61ZM24.9682 35H79.9681V32H24.9682V35ZM14.2644 53.2847C15.2131 48.3773 18.0896 43.7259 20.822 40.2374C22.1768 38.5077 23.471 37.0956 24.4249 36.1177C24.9012 35.6292 25.2913 35.2505 25.5598 34.9962C25.694 34.869 25.7978 34.773 25.8665 34.7101C25.9009 34.6786 25.9266 34.6554 25.9429 34.6407C25.9511 34.6333 25.957 34.628 25.9604 34.625C25.9621 34.6234 25.9633 34.6224 25.9638 34.6219C25.9641 34.6217 25.9642 34.6216 25.9641 34.6216C25.9641 34.6217 25.964 34.6218 25.9639 34.6218C25.9638 34.622 25.9635 34.6222 24.9682 33.5C23.9728 32.3778 23.9725 32.3781 23.9722 32.3784C23.972 32.3785 23.9716 32.3789 23.9713 32.3792C23.9706 32.3798 23.9698 32.3805 23.9689 32.3814C23.9669 32.3831 23.9644 32.3854 23.9612 32.3882C23.9549 32.3938 23.9462 32.4016 23.9351 32.4116C23.9129 32.4316 23.8813 32.4602 23.8409 32.4972C23.7601 32.5712 23.6438 32.6788 23.4966 32.8183C23.2023 33.0971 22.7838 33.5036 22.2772 34.023C21.2651 35.0607 19.8958 36.5548 18.4602 38.3876C15.6118 42.0241 12.4001 47.1227 11.3189 52.7153L14.2644 53.2847ZM79.9791 35L206.511 34.0732L206.489 31.0733L79.9571 32L79.9791 35ZM219.333 49.3786C217.408 45.1474 214.473 40.6963 212.053 37.3376C210.837 35.6502 209.74 34.2222 208.945 33.2151C208.548 32.7114 208.226 32.3124 208.002 32.0382C207.891 31.9011 207.803 31.7952 207.744 31.7229C207.714 31.6868 207.691 31.6591 207.675 31.6401C207.667 31.6306 207.661 31.6233 207.657 31.6183C207.655 31.6157 207.653 31.6137 207.652 31.6123C207.651 31.6116 207.651 31.611 207.65 31.6106C207.65 31.6104 207.65 31.6102 207.65 31.6101C207.65 31.6099 207.65 31.6097 206.5 32.5732C205.35 33.5368 205.35 33.5367 205.35 33.5366C205.35 33.5367 205.35 33.5367 205.35 33.5367C205.35 33.5369 205.351 33.5371 205.351 33.5375C205.352 33.5384 205.353 33.5397 205.354 33.5417C205.358 33.5455 205.363 33.5516 205.37 33.5598C205.383 33.5763 205.404 33.6015 205.432 33.635C205.487 33.702 205.57 33.8025 205.677 33.9339C205.892 34.1967 206.203 34.5831 206.59 35.0731C207.363 36.0534 208.434 37.4461 209.619 39.0912C212.001 42.3978 214.8 46.6601 216.603 50.6214L219.333 49.3786ZM217.968 31.0732H206.5V34.0732H217.968V31.0732ZM186.5 24C186.5 25.5 186.5 25.5 186.5 25.5C186.5 25.5 186.5 25.5 186.501 25.5C186.501 25.5 186.502 25.5 186.503 25.5C186.504 25.5 186.507 25.5 186.511 25.5C186.518 25.5 186.529 25.5 186.544 25.5C186.573 25.5 186.617 25.5001 186.675 25.5001C186.79 25.5002 186.96 25.5005 187.179 25.501C187.619 25.5019 188.256 25.5039 189.047 25.5078C190.63 25.5156 192.83 25.5312 195.294 25.5624C200.23 25.6249 206.2 25.7496 210.412 25.9974L210.588 23.0026C206.3 22.7504 200.27 22.6251 195.331 22.5626C192.858 22.5313 190.651 22.5157 189.062 22.5078C188.268 22.5039 187.628 22.502 187.186 22.501C186.965 22.5005 186.794 22.5002 186.678 22.5001C186.62 22.5001 186.575 22.5 186.545 22.5C186.531 22.5 186.519 22.5 186.512 22.5C186.508 22.5 186.505 22.5 186.503 22.5C186.502 22.5 186.501 22.5 186.501 22.5C186.501 22.5 186.5 22.5 186.5 22.5C186.5 22.5 186.5 22.5 186.5 24ZM210.412 25.9974C211.036 26.0341 211.737 26.3566 212.502 27.009C213.26 27.6554 213.972 28.5346 214.596 29.4661C215.214 30.3895 215.714 31.3144 216.06 32.0131C216.232 32.3608 216.364 32.6483 216.453 32.8463C216.497 32.9452 216.529 33.0215 216.551 33.0715C216.561 33.0964 216.569 33.1148 216.574 33.1261C216.576 33.1318 216.578 33.1356 216.578 33.1377C216.579 33.1387 216.579 33.1393 216.579 33.1394C216.579 33.1395 216.579 33.1394 216.579 33.1392C216.579 33.1391 216.579 33.1389 216.579 33.1389C216.579 33.1386 216.579 33.1383 217.968 32.5732C219.358 32.0082 219.357 32.0078 219.357 32.0075C219.357 32.0073 219.357 32.0069 219.357 32.0066C219.357 32.0059 219.356 32.0051 219.356 32.0042C219.355 32.0024 219.354 32.0002 219.353 31.9974C219.351 31.992 219.348 31.9846 219.344 31.9755C219.337 31.9572 219.326 31.9316 219.312 31.8992C219.285 31.8345 219.245 31.7425 219.194 31.6271C219.091 31.3964 218.941 31.0709 218.748 30.6814C218.364 29.9058 217.8 28.8597 217.088 27.7963C216.381 26.741 215.494 25.6177 214.449 24.7267C213.412 23.8417 212.108 23.092 210.588 23.0026L210.412 25.9974ZM24.9682 25.5H49.5V22.5H24.9682V25.5ZM24.9682 22.5C23.157 22.5 21.5084 23.2751 20.1286 24.266C18.7404 25.2629 17.509 26.5602 16.4991 27.8049C15.4835 29.0566 14.6556 30.3005 14.0831 31.2274C13.7959 31.6924 13.5707 32.0813 13.4159 32.3566C13.3385 32.4943 13.2785 32.6038 13.2372 32.6804C13.2165 32.7187 13.2004 32.7488 13.1891 32.7701C13.1834 32.7808 13.179 32.7892 13.1757 32.7954C13.1741 32.7985 13.1728 32.8011 13.1718 32.803C13.1713 32.804 13.1708 32.8048 13.1705 32.8055C13.1703 32.8058 13.1701 32.8063 13.17 32.8064C13.1698 32.8068 13.1696 32.8071 14.5 33.5C15.8304 34.1929 15.8303 34.1931 15.8301 34.1934C15.8301 34.1934 15.83 34.1936 15.83 34.1936C15.8299 34.1937 15.83 34.1937 15.83 34.1935C15.8302 34.1932 15.8307 34.1923 15.8315 34.1908C15.833 34.1879 15.8357 34.1827 15.8396 34.1754C15.8474 34.1607 15.8598 34.1375 15.8767 34.1062C15.9105 34.0437 15.9622 33.9491 16.0308 33.827C16.1682 33.5827 16.3726 33.2295 16.6355 32.8039C17.1633 31.9495 17.9173 30.8184 18.8287 29.6951C19.7458 28.5648 20.7863 27.4871 21.8785 26.7027C22.979 25.9124 24.0191 25.5 24.9682 25.5V22.5ZM14.5 35H24.9682V32H14.5V35ZM211 121C212.489 121.181 212.489 121.181 212.489 121.18C212.489 121.18 212.489 121.18 212.489 121.18C212.489 121.18 212.489 121.179 212.489 121.179C212.489 121.178 212.49 121.177 212.49 121.176C212.49 121.173 212.49 121.17 212.491 121.166C212.492 121.157 212.493 121.146 212.495 121.132C212.498 121.103 212.503 121.062 212.508 121.009C212.519 120.904 212.534 120.754 212.551 120.564C212.584 120.185 212.623 119.649 212.649 119.01C212.701 117.74 212.703 116.024 212.488 114.313L209.512 114.687C209.698 116.172 209.7 117.706 209.652 118.887C209.628 119.473 209.592 119.963 209.562 120.304C209.547 120.474 209.534 120.606 209.525 120.695C209.52 120.739 209.516 120.772 209.514 120.793C209.513 120.803 209.512 120.811 209.511 120.815C209.511 120.817 209.511 120.819 209.511 120.82C209.511 120.82 209.511 120.82 209.511 120.82C209.511 120.82 209.511 120.82 209.511 120.82C209.511 120.82 209.511 120.82 209.511 120.82C209.511 120.819 209.511 120.819 211 121ZM212.488 114.313C212.24 112.335 211.746 110.313 211.063 108.742C210.724 107.963 210.305 107.217 209.787 106.641C209.282 106.078 208.514 105.5 207.5 105.5V108.5C207.305 108.5 207.325 108.389 207.556 108.646C207.775 108.889 208.04 109.313 208.312 109.939C208.851 111.179 209.288 112.907 209.512 114.687L212.488 114.313Z" fill="#7161EF"/>
      </g>
      <path id="Vector_3" d="M143.329 77.2827C141.088 78.3276 139.208 80.0133 137.925 82.1269C136.643 84.2405 136.016 86.6869 136.123 89.1568C136.231 91.6267 137.069 94.0092 138.531 96.0029C139.993 97.9967 142.013 99.5122 144.336 100.358C146.659 101.203 149.181 101.341 151.583 100.753C153.984 100.166 156.157 98.8792 157.828 97.0565C159.498 95.2337 160.59 92.9566 160.966 90.5131C161.342 88.0696 160.985 85.5695 159.94 83.3289C158.536 80.3268 155.999 78.0043 152.885 76.8708C149.771 75.7373 146.334 75.8855 143.329 77.2827ZM157.423 84.5028C158.068 85.8806 158.379 87.3915 158.33 88.9123L149.565 87.369L145.804 79.3045C148.042 78.6324 150.447 78.7877 152.581 79.742C154.714 80.6964 156.432 82.3862 157.423 84.5028ZM147.047 88.5429L142.595 96.2494C141.381 95.2962 140.412 94.0675 139.768 92.6652C139.124 91.2628 138.823 89.7271 138.89 88.1853C138.958 86.6434 139.392 85.1399 140.156 83.7991C140.92 82.4583 141.993 81.3189 143.285 80.4753L147.047 88.5429ZM145.007 97.6331L148.48 91.6164L151.419 97.9186C149.311 98.5534 147.05 98.4528 145.007 97.6331ZM153.937 96.7447L150.998 90.4425L157.84 91.649C157.154 93.741 155.778 95.5379 153.937 96.7447Z" fill="#7161EF"/>
    </g>
  </g>
</svg>
