<svg width="541" height="447" viewBox="0 0 541 447" fill="none" xmlns="http://www.w3.org/2000/svg">
<path d="M109 264H105V268V274H16C9.37259 274 4 268.627 4 262V16C4 9.37258 9.37258 4 16 4H525C531.627 4 537 9.37258 537 16V262C537 268.627 531.627 274 525 274H427V268V264H423H394H390V268V274H142V268V264H138H109ZM419 272V274H398V272H419ZM398 282H419V443H398V282ZM113 282H134V443H113V282ZM134 274H113V272H134V274Z" fill="white" stroke="#7161EF" stroke-width="8"/>
<path d="M294 178.75C294.167 181.75 294.75 186.25 295.75 192.25C295.917 193.25 296.25 195.5 296.75 199C297.25 202.333 297.5 205.417 297.5 208.25C297.5 211.417 297.083 213.667 296.25 215C295.583 216.333 294.583 217.167 293.25 217.5C292.083 217.667 290 217.75 287 217.75C276.333 217.75 271 215.833 271 212C271 210.5 271.167 208.667 271.5 206.5C272 204.167 272.333 202.667 272.5 202C271.5 192.667 271 181.333 271 168C271 164.833 270.167 158.25 268.5 148.25C266.833 138.25 265.583 131.5 264.75 128L263.25 126.5C263.25 121.5 263 115.417 262.5 108.25C262 100.917 261.25 97.25 260.25 97.25H257V103.25C255 108.25 250.833 117.75 244.5 131.75C238.333 145.583 233.25 156.667 229.25 165C228.75 165.833 228 167.417 227 169.75C226.167 172.083 225.167 174 224 175.5C222.833 176.833 221.417 177.5 219.75 177.5C216.25 177.5 213.417 176.583 211.25 174.75C209.25 172.75 208.167 170 208 166.5C199.167 151.833 192.083 139.583 186.75 129.75C181.583 119.75 177.333 109.833 174 100C173.833 100 173.25 99.5 172.25 98.5C171.917 101.167 170.917 106.833 169.25 115.5C169.25 119.667 168.417 126.75 166.75 136.75C165.083 147.083 164.25 154.75 164.25 159.75C164.25 162.083 164.333 163.833 164.5 165L156.75 217.5C156.417 219.833 154.167 221 150 221C146.5 221 143.667 220.667 141.5 220C139.5 219.333 136.917 217.917 133.75 215.75C133.583 215.583 133.333 214.917 133 213.75C132.667 212.417 132.417 211.583 132.25 211.25C136.417 191.917 138.5 175.75 138.5 162.75L138.25 154.25L147.75 98.5C147.75 92.1667 148.75 83 150.75 71C150.917 70.1667 151 68.0833 151 64.75C151.167 61.4167 151.75 58.5 152.75 56C153.75 53.5 155.333 52.25 157.5 52.25C157.833 52.25 158.667 52.5833 160 53.25C161.333 53.75 162.417 54 163.25 54C163.583 53.8333 164.167 53.5833 165 53.25C166 52.75 166.833 52.4167 167.5 52.25C170 53.0833 173.25 56.75 177.25 63.25C181.417 69.5833 186.833 78.9167 193.5 91.25C199.167 101.583 203.667 109.583 207 115.25C210.333 120.917 213.167 124.667 215.5 126.5C217.667 125 219.583 122.75 221.25 119.75C222.917 116.75 224.917 112.75 227.25 107.75C228.75 104.25 230 101.667 231 100L238 89L241.75 83.25C243.75 79.75 246.167 75.25 249 69.75C251.833 64.0833 254.083 59.3333 255.75 55.5C257.083 52.3333 260.917 50.75 267.25 50.75C269.75 50.75 272.25 51.4167 274.75 52.75C277.417 53.9167 278.75 55.9167 278.75 58.75L278.5 60.75L278.75 63C279.583 72.1667 280.75 80.9167 282.25 89.25C283.75 97.4167 284.667 102.5 285 104.5C287.333 117 289.167 128.5 290.5 139C292 149.5 293.167 162.75 294 178.75ZM260.25 91C261.75 92 262.833 93.4167 263.5 95.25C264 96.5833 264.5 97.5 265 98C265.667 98.5 266.833 98.75 268.5 98.75C271.167 98.75 273 98.6667 274 98.5C275.167 98.3333 275.75 97.9167 275.75 97.25C275.583 96.5833 275.333 95.75 275 94.75C274.667 93.75 274.417 93 274.25 92.5L271 60.25L269.5 60C267.333 60 265.083 60.8333 262.75 62.5C260.583 64 258.667 65.75 257 67.75C257.333 68.75 258 69.5 259 70C260 70.3333 261.5 70.6667 263.5 71C265.667 71.3333 267.167 71.75 268 72.25C267.167 73.75 265.917 74.8333 264.25 75.5C262.583 76 261.583 76.3333 261.25 76.5C257.917 77.5 256.083 78.9167 255.75 80.75H268L269.5 83.25C268.333 83.75 265.583 84.5 261.25 85.5C255.917 86.5 251.75 87.5833 248.75 88.75C245.917 89.75 244.5 91.25 244.5 93.25L244.75 94L250.75 92.5L249.75 91C250.917 90.8333 252.583 90.5833 254.75 90.25C256.917 89.9167 258.75 89.6667 260.25 89.5H261.75L260.25 91ZM156.75 68C157.417 68 158.417 67.75 159.75 67.25C161.083 66.5833 162.25 66.25 163.25 66.25C163.417 67.5833 165.5 68.25 169.5 68.25C169.5 66.9167 169.25 66 168.75 65.5C168.25 65 167.417 64.75 166.25 64.75V61.5C165.917 61.3333 164.5 61.0833 162 60.75C159.5 60.4167 157.75 60.25 156.75 60.25V68ZM166.5 82C167.667 82 169.417 81.3333 171.75 80C174.25 78.5 175.5 77.25 175.5 76.25C175.5 75.0833 174.667 74.1667 173 73.5C171.333 72.6667 169.833 72.25 168.5 72.25C166.167 72.25 163.583 72.8333 160.75 74C157.917 75.1667 156.5 76.8333 156.5 79C157.667 79 159.333 78.5 161.5 77.5C163.833 76.5 165.417 75.9167 166.25 75.75C165.917 76.0833 165.5 76.5833 165 77.25C164.667 77.75 164.5 78.25 164.5 78.75C164.667 79.0833 165.083 79.5 165.75 80C166.417 80.5 166.75 80.9167 166.75 81.25C166.75 81.5833 166.667 81.8333 166.5 82ZM257 72.25C256 72.25 255.25 72.5 254.75 73C254.25 73.3333 254 74.25 254 75.75H256C257.5 75.75 258.917 75.0833 260.25 73.75C259.917 72.75 258.833 72.25 257 72.25ZM252.5 83C251.5 83 250.833 83.0833 250.5 83.25C250.167 83.4167 249.917 83.9167 249.75 84.75H257C255.833 83.5833 254.333 83 252.5 83ZM174.5 91C176.833 91 178.833 90.9167 180.5 90.75C182.333 90.4167 183.25 89.6667 183.25 88.5C183.25 88.1667 182.167 86.9167 180 84.75C176.333 87.4167 173.75 89.5 172.25 91H174.5ZM163.5 91C165.5 91 166.917 90.75 167.75 90.25C168.75 89.75 169.75 88.4167 170.75 86.25C169.583 86.4167 167.917 86.8333 165.75 87.5C163.583 88.1667 161.667 88.8333 160 89.5C160.167 90.1667 160.583 90.5833 161.25 90.75C161.917 90.9167 162.667 91 163.5 91ZM269.5 86.25V87.75H264.75L269.5 86.25ZM160.5 103.5C162.333 103.5 163.667 102.5 164.5 100.5C165.333 98.5 165.75 96.5 165.75 94.5C163.25 94.5 161.167 94.0833 159.5 93.25C158 92.4167 156.583 92 155.25 92V100C156.083 100.5 157.083 101.25 158.25 102.25C159.417 103.083 160.167 103.5 160.5 103.5ZM177.75 97.5C178.083 97.5 179.417 96.3333 181.75 94L178.5 93.75H177.75C175.417 93.75 174.167 94.3333 174 95.5C174.5 96 175.167 96.4167 176 96.75C176.833 97.0833 177.417 97.3333 177.75 97.5ZM249.75 98.75C251.083 98.75 252.5 98.25 254 97.25C254 96.9167 253.833 96.5833 253.5 96.25C253.167 95.75 252.833 95.5 252.5 95.5C251.667 95.6667 250.583 95.9167 249.25 96.25C248.083 96.5833 247 96.9167 246 97.25C246.5 97.9167 247 98.3333 247.5 98.5C248.167 98.6667 248.917 98.75 249.75 98.75ZM238.5 105.5C240 105.5 241.583 105.167 243.25 104.5C244.917 103.667 246.5 102.833 248 102C247.5 101.333 246.667 100.667 245.5 100C244.5 99.1667 243.75 98.6667 243.25 98.5C241.75 98.5 240.583 99.25 239.75 100.75C238.917 102.25 238.5 103.833 238.5 105.5ZM189.5 100C186 102.333 184.25 104.5 184.25 106.5C187.417 106.5 190.083 105.917 192.25 104.75C191.583 102.75 190.667 101.167 189.5 100ZM266 101.75C266 102.583 266.5 103.583 267.5 104.75C268.667 105.75 269.5 106.25 270 106.25C272.167 106.25 274.083 105.25 275.75 103.25C270.75 102.25 267.5 101.75 266 101.75ZM153.5 110.75C153.5 112.583 154.417 113.917 156.25 114.75C158.25 115.583 160.25 116 162.25 116C162.25 111.833 161.667 108.917 160.5 107.25C159.333 105.417 156.917 104.5 153.25 104.5C153.25 106.167 154.417 107.333 156.75 108C154.583 108 153.5 108.917 153.5 110.75ZM232.5 124.75C233 124.417 234.5 123.083 237 120.75C239.5 118.417 241.667 115.917 243.5 113.25C245.5 110.583 246.5 108.167 246.5 106C243 106 239.75 106.917 236.75 108.75C233.917 110.583 232.5 113.083 232.5 116.25C232.5 116.917 232.917 117.5 233.75 118C234.75 118.333 235.333 118.583 235.5 118.75C232.667 119.25 230.25 120.833 228.25 123.5C226.25 126 224.5 128.667 223 131.5C221.667 134.167 220.667 136 220 137L223.25 139C222.083 140 220.5 140.583 218.5 140.75C216.667 140.917 215.583 141 215.25 141C212.583 141.167 210.5 141.5 209 142C207.667 142.5 206.75 143.5 206.25 145L208 146.5C208.333 146.333 209.5 146.083 211.5 145.75C213.667 145.417 215 145.167 215.5 145L220 145.25V146.5C213.5 150.167 210.25 153.417 210.25 156.25C216.917 156.25 222.25 154.5 226.25 151C230.417 147.5 232.5 142.417 232.5 135.75C230.833 136.583 229.25 137 227.75 137C228.083 137 228.667 136.667 229.5 136C230.5 135.167 231 134.5 231 134C231 133.667 230.667 133 230 132C229.5 131 229.25 130.167 229.25 129.5L234.5 131C236.5 131 237.5 128.917 237.5 124.75H232.5ZM270.75 110.25C270.75 110.583 270.833 110.75 271 110.75L277 112.75V107.5C275.833 107.5 274.5 107.75 273 108.25C271.5 108.583 270.75 109.25 270.75 110.25ZM187.75 111.25C188.25 111.25 189 111 190 110.5C191 109.833 191.75 109.5 192.25 109.5H187.75V111.25ZM197 110.5C193.667 110.5 192 111.667 192 114H197V110.5ZM274.5 113.75C273.167 113.75 272 114.333 271 115.5L272.5 117C273.833 116.333 274.5 115.25 274.5 113.75ZM154.25 125C156.083 125 157.75 124.75 159.25 124.25C160.917 123.583 161.75 122.833 161.75 122C161.75 121.833 161.583 121.25 161.25 120.25L152.25 115.5L150.75 119.5H155.25C154.75 121.167 153.25 122.5 150.75 123.5C150.917 124.5 152.083 125 154.25 125ZM190.5 117C190.5 117.667 190.667 118.417 191 119.25C191.333 119.917 191.75 120.25 192.25 120.25C193.083 120.25 194.167 120 195.5 119.5C196.833 118.833 197.5 118 197.5 117H190.5ZM272.25 121.5C272.25 123.167 272.833 124.25 274 124.75C275.167 125.25 276.75 125.5 278.75 125.5V117C277.25 117 275.75 117.417 274.25 118.25C272.917 119.083 272.25 120.167 272.25 121.5ZM200.25 120.25C198.417 120.25 196.75 120.75 195.25 121.75C193.917 122.583 193.25 123.75 193.25 125.25C198.25 125.25 201.5 124 203 121.5C202.667 120.667 201.75 120.25 200.25 120.25ZM149 131.25C149.667 131.25 150.667 131.083 152 130.75C153.333 130.417 154.417 130 155.25 129.5C155.083 128.333 154.167 127.75 152.5 127.75L149 128V131.25ZM274.25 132.75C274.917 132.583 276.083 132.333 277.75 132C279.583 131.5 280.5 131 280.5 130.5C280.5 128.667 278.917 127.75 275.75 127.75L274.25 128V132.75ZM198.75 131.5C200.25 131.5 201.5 131.333 202.5 131C203.5 130.5 204.167 129.5 204.5 128H193.75L193.5 129C193.5 130.167 193.833 130.917 194.5 131.25C195.333 131.417 196.417 131.5 197.75 131.5H198.75ZM205.5 130.75C205 130.75 204.167 131.333 203 132.5C201.833 133.667 200.917 134.75 200.25 135.75L203 136C204.667 136 205.917 135.917 206.75 135.75C207.583 135.417 208.333 134.833 209 134C208.833 133.5 208.417 133 207.75 132.5C207.25 131.833 206.75 131.333 206.25 131L205.5 130.75ZM158.5 137C159.333 137 159.833 136.75 160 136.25C160.167 135.75 160.25 135 160.25 134C160.25 132.5 159.667 131.5 158.5 131C157.667 131.167 156 131.75 153.5 132.75C151.167 133.583 149.667 134.583 149 135.75L158.5 137ZM275.75 139C276.417 139.333 277.333 139.667 278.5 140C279.833 140.167 280.917 140.25 281.75 140.25C283.25 140.25 284 138.083 284 133.75C282.167 133.75 280.25 134.083 278.25 134.75C276.417 135.417 275.5 136.5 275.5 138L275.75 139ZM147.75 143.5C148.25 143.5 149.583 143.083 151.75 142.25C153.917 141.25 155.583 140.583 156.75 140.25C156.583 139.917 156.167 139.667 155.5 139.5C154.833 139.167 154.333 139 154 139C152.833 139 151.5 139.167 150 139.5C148.5 139.667 147.75 139.917 147.75 140.25V143.5ZM203 142.5C204.333 142.5 205.583 142.167 206.75 141.5C208.083 140.833 208.833 140 209 139H203V142.5ZM283.5 143.5C282.833 143.333 281.75 143 280.25 142.5C278.917 142 277.833 141.75 277 141.75V146.75C278.333 146.75 279.583 146.5 280.75 146C281.917 145.333 282.833 144.5 283.5 143.5ZM149.75 147.75C151.25 147.75 153.083 147.583 155.25 147.25C157.417 146.75 158.5 145.75 158.5 144.25C158.5 143.75 158.167 143.5 157.5 143.5C155 143.5 153.083 143.75 151.75 144.25C150.417 144.583 149.75 145.75 149.75 147.75ZM208 151C209 151 209.833 150.75 210.5 150.25C211.167 149.583 211.5 148.75 211.5 147.75C209 147.75 207.75 148.667 207.75 150.5L208 151ZM277 151.5C277 155.167 279.167 157 283.5 157V147.75C281.667 147.75 279.5 149 277 151.5ZM147.75 169.5C151.417 169.5 153.833 168.5 155 166.5C156.333 164.333 157 161.5 157 158C157 154.833 156.667 152.667 156 151.5C155.333 150.167 154.167 149.417 152.5 149.25C151 148.917 148.25 148.75 144.25 148.75C144.417 150.417 144.667 152.417 145 154.75C145.333 156.917 145.667 158.833 146 160.5C146.333 161 147.167 161.833 148.5 163C149.833 164 150.583 164.667 150.75 165C150.75 165.5 150.333 166.417 149.5 167.75C148.667 168.917 148.083 169.5 147.75 169.5ZM213.5 159.25C213.5 159.417 213.583 159.583 213.75 159.75C213.917 159.917 214 160.167 214 160.5C214.5 160.5 215.083 160.167 215.75 159.5C216.583 158.833 217.083 158.333 217.25 158L217 157.5C216.333 157.5 215.583 157.75 214.75 158.25C213.917 158.583 213.5 158.917 213.5 159.25ZM278.75 158.5V160.5C280.25 160.5 281.25 159.833 281.75 158.5H278.75ZM216.5 165.75C217.667 165.75 218.583 165.417 219.25 164.75C219.917 163.917 220.417 163.083 220.75 162.25C221.25 161.417 221.583 160.833 221.75 160.5L220.75 160.25C217.917 161.417 216.5 163.25 216.5 165.75ZM278.75 167.25C278.75 168.583 279.333 169.417 280.5 169.75C281.667 169.917 283.167 170 285 170V160.5C283.333 161 281.833 161.833 280.5 163C279.333 164.167 278.75 165.583 278.75 167.25ZM144.25 191.5C147.75 191.5 150.25 190.083 151.75 187.25C153.417 184.25 154.25 180.917 154.25 177.25L154 172.75L150.75 174.25V172.25C147.75 172.25 145.917 173.667 145.25 176.5C144.583 179.333 144.25 184.333 144.25 191.5ZM285 172.75H280.5V177.25L285 172.75ZM286.5 177C284.833 177 283.25 177.667 281.75 179C280.25 180.333 279.5 181.833 279.5 183.5H286.5V177ZM280.5 186.75V188.5C283 188.5 284.5 187.917 285 186.75H280.5ZM283.5 209.75C286 209.417 287.667 209 288.5 208.5C289.333 207.833 289.75 206.75 289.75 205.25C289.75 202.417 289.417 199.083 288.75 195.25C288.083 191.417 287.083 189.5 285.75 189.5C284.75 189.5 283.583 189.917 282.25 190.75C281.083 191.583 280.5 192.5 280.5 193.5C280.5 194.667 280.917 197.5 281.75 202C282.75 206.333 283.333 208.917 283.5 209.75ZM147.75 212.75C149.917 212.75 151 210.083 151 204.75L150.75 199H148L147.75 197.5C148.417 195.5 148.833 194.417 149 194.25C146.167 194.25 144.167 195.75 143 198.75C142 201.75 141.5 204.917 141.5 208.25C141.5 209.75 142.083 210.917 143.25 211.75C144.583 212.417 146.083 212.75 147.75 212.75ZM326.557 163.25C326.557 154.917 328.057 145.75 331.057 135.75C334.057 125.75 337.723 117.167 342.057 110L342.557 110.25C343.557 110.25 345.64 109.167 348.807 107C351.807 105 353.723 104 354.557 104C355.723 103.667 358.723 102.917 363.557 101.75C368.557 100.583 373.223 100 377.557 100V102.25C379.89 101.417 381.973 100.917 383.807 100.75C385.807 100.583 387.807 100.5 389.807 100.5C394.973 100.5 399.973 101 404.807 102C409.807 103 412.307 104.75 412.307 107.25C416.473 107.25 419.723 108.75 422.057 111.75C424.557 114.583 426.973 118.5 429.307 123.5C430.14 125.333 430.973 127 431.807 128.5C432.807 130 433.723 131 434.557 131.5V153L430.057 156.25L431.307 157.75C426.807 161.25 416.973 163 401.807 163H388.807C380.473 163 374.973 162.917 372.307 162.75C369.807 162.583 364.807 161.917 357.307 160.75C357.14 159.75 356.64 159.25 355.807 159.25C355.473 159.25 355.057 159.333 354.557 159.5C354.057 159.667 353.557 159.75 353.057 159.75C353.057 164.583 353.64 169.917 354.807 175.75C356.14 181.583 358.057 185.833 360.557 188.5C361.89 190 365.557 191.833 371.557 194C374.557 195 376.557 195.75 377.557 196.25C380.557 198.417 383.14 199.5 385.307 199.5C389.14 199.5 393.307 199 397.807 198C402.307 197 404.89 196.417 405.557 196.25C413.557 194.083 419.973 193 424.807 193C426.973 193 428.39 194 429.057 196C429.89 197.833 430.307 200.25 430.307 203.25C430.307 206.417 430.057 208.417 429.557 209.25C429.057 210.083 428.14 210.667 426.807 211C425.473 211.167 424.39 211.833 423.557 213C422.557 213.333 412.807 215 394.307 218C387.307 218 381.057 217.833 375.557 217.5C370.223 217.167 365.223 216.25 360.557 214.75C355.39 213.083 350.14 209.167 344.807 203C339.64 196.833 335.307 190 331.807 182.5C328.307 175 326.557 168.583 326.557 163.25ZM405.557 115.5C405.557 116.833 407.057 118.833 410.057 121.5C413.057 124.167 415.057 125.5 416.057 125.5C417.057 125.5 418.39 125.167 420.057 124.5C421.723 123.833 422.557 123.083 422.557 122.25C422.557 121.25 422.223 119.833 421.557 118C420.89 116 420.557 114.833 420.557 114.5C420.557 115 420.14 115.417 419.307 115.75C418.64 115.917 418.057 116 417.557 116C416.223 115.833 414.64 115.167 412.807 114C411.14 112.833 410.307 111.5 410.307 110C405.473 110 403.057 108.833 403.057 106.5C402.723 106.5 402.057 107.083 401.057 108.25C400.057 109.417 398.223 110 395.557 110C394.723 110 393.89 109.667 393.057 109C392.223 108.333 391.14 108 389.807 108L386.557 108.25C386.89 108.417 387.64 109.5 388.807 111.5C390.14 113.5 391.223 114.583 392.057 114.75C392.39 114.75 392.973 114.5 393.807 114C394.807 113.333 395.64 113 396.307 113C396.973 113.167 398.223 113.667 400.057 114.5C401.89 115.167 403.723 115.5 405.557 115.5ZM338.307 167.25C339.807 167.25 341.307 166.917 342.807 166.25C344.473 165.417 345.307 164.333 345.307 163C345.307 162.667 345.057 162.167 344.557 161.5C344.057 160.667 343.807 159.917 343.807 159.25C344.14 158.083 344.723 156.667 345.557 155C346.39 153.167 346.807 151.333 346.807 149.5C346.807 148.167 346.473 147.25 345.807 146.75C345.307 146.083 344.473 145.5 343.307 145C342.307 144.5 341.807 143.917 341.807 143.25C341.807 142.583 342.307 141.083 343.307 138.75C344.473 136.25 345.057 134.583 345.057 133.75C345.057 132.083 346.64 129.333 349.807 125.5C351.64 123 353.057 121 354.057 119.5C355.057 118 355.557 116.5 355.557 115C356.223 115 357.14 115.167 358.307 115.5C359.473 115.833 360.64 116 361.807 116C362.307 116 362.64 115.583 362.807 114.75C362.973 113.75 363.223 113.167 363.557 113C364.89 112.5 367.557 112.25 371.557 112.25C375.39 112.083 378.307 111.917 380.307 111.75C382.307 111.417 383.39 110.833 383.557 110C381.723 109.167 379.973 108.667 378.307 108.5C376.64 108.167 374.473 108 371.807 108C360.473 108 351.807 111.833 345.807 119.5C339.973 127.167 337.057 136.833 337.057 148.5H345.057V150L335.807 159.25V164L338.807 162.25L335.807 167L338.307 167.25ZM352.807 138C353.64 139.667 358.473 140.833 367.307 141.5C376.307 142 383.807 142.25 389.807 142.25C392.807 142.25 396.807 141.917 401.807 141.25C406.473 140.583 410.307 140.25 413.307 140.25C413.307 139.417 412.723 137.75 411.557 135.25C410.39 132.583 409.473 131.25 408.807 131.25L408.307 131.5C407.14 128 403.39 125.083 397.057 122.75C390.89 120.417 385.64 119.25 381.307 119.25C374.64 119.25 368.807 120.833 363.807 124C358.807 127.167 355.14 131.833 352.807 138ZM422.557 143.25C422.557 145.75 421.723 147.417 420.057 148.25C418.39 148.917 415.973 149.25 412.807 149.25C410.14 149.417 408.14 149.75 406.807 150.25C405.473 150.75 404.807 151.833 404.807 153.5C410.307 153.5 414.64 153.333 417.807 153C420.973 152.667 422.89 151.667 423.557 150C424.39 151.333 425.557 152 427.057 152C427.057 150.667 426.723 149.25 426.057 147.75C425.557 146.083 425.307 144.833 425.307 144C425.307 143.333 425.64 142.75 426.307 142.25C427.14 141.75 427.723 141.167 428.057 140.5C428.557 139.833 428.807 138.5 428.807 136.5C428.807 130 426.89 126.75 423.057 126.75C421.39 126.75 420.307 127.25 419.807 128.25C419.473 129.083 419.307 130.75 419.307 133.25C421.14 138.75 422.223 141.75 422.557 142.25V143.25ZM354.807 146.25C353.307 146.25 351.973 146.833 350.807 148C349.807 149.167 349.307 150.5 349.307 152C351.473 152 352.89 151.583 353.557 150.75C354.39 149.917 354.807 148.417 354.807 146.25ZM359.557 148.5C359.223 148.5 358.223 149.25 356.557 150.75C355.057 152.25 353.807 153.583 352.807 154.75L358.057 153.75C358.39 153.75 359.473 153.583 361.307 153.25C363.307 152.75 365.64 151.667 368.307 150C367.807 149.833 365.223 149.333 360.557 148.5H359.557ZM368.307 153C371.64 154.167 374.557 154.75 377.057 154.75C378.557 154.75 379.807 154.25 380.807 153.25C381.973 152.25 382.557 151 382.557 149.5C374.223 149.5 369.473 150.667 368.307 153ZM392.057 151.5C389.723 151.5 387.39 151.833 385.057 152.5C382.89 153 381.807 154 381.807 155.5L382.057 156.25C382.39 156.25 385.307 156.083 390.807 155.75C396.473 155.25 399.723 153.833 400.557 151.5H393.557H392.057ZM344.057 169.5C340.89 169.5 338.89 170 338.057 171C337.223 171.833 336.807 173.917 336.807 177.25C338.807 177.25 340.473 176.5 341.807 175C343.307 173.333 344.057 171.5 344.057 169.5ZM345.057 173C344.723 173.5 343.807 174.833 342.307 177C340.973 179 340.307 181 340.307 183C345.14 183 348.307 182.333 349.807 181C349.307 179.833 348.473 178.5 347.307 177C346.14 175.333 345.39 174 345.057 173ZM342.057 187C342.89 187.5 343.557 188.5 344.057 190C344.557 191.333 344.89 192.417 345.057 193.25C348.89 191.25 350.807 188.083 350.807 183.75C346.14 183.75 343.223 184.833 342.057 187ZM354.557 201C356.557 198 357.557 196.083 357.557 195.25L357.307 194.5L348.307 193.25L346.557 194.5L354.557 201ZM357.307 202.5C357.473 202.833 357.723 203.167 358.057 203.5C358.39 203.667 358.723 203.833 359.057 204C360.557 203.667 362.223 202.917 364.057 201.75C365.89 200.583 366.807 199.75 366.807 199.25C366.807 198.417 366.473 197.75 365.807 197.25C365.307 196.583 364.89 196.25 364.557 196.25C363.057 196.25 361.473 197 359.807 198.5C358.14 199.833 357.307 201.167 357.307 202.5ZM363.557 207C367.223 207.833 369.307 208.417 369.807 208.75C370.64 209.583 371.14 210 371.307 210C373.807 210 375.973 209.25 377.807 207.75C379.807 206.083 380.807 204.083 380.807 201.75C374.473 201.75 371.307 202.5 371.307 204C371.307 203.5 370.973 202.833 370.307 202C369.807 201.167 369.39 200.75 369.057 200.75C368.723 200.75 367.64 201.583 365.807 203.25C364.14 204.75 363.307 205.75 363.307 206.25L363.557 207ZM380.557 208.75C381.39 209.583 381.89 210 382.057 210C384.89 210 388.223 209.667 392.057 209C395.89 208.333 398.307 207.917 399.307 207.75C406.307 206.417 410.89 205.75 413.057 205.75L416.057 207C418.057 207 419.89 206.583 421.557 205.75C423.223 204.917 424.057 203.583 424.057 201.75C420.723 201.75 416.223 202.417 410.557 203.75C409.723 203.917 408.307 204.25 406.307 204.75C404.307 205.25 402.39 205.583 400.557 205.75C397.223 205.75 393.64 205.917 389.807 206.25C386.14 206.417 383.557 206.667 382.057 207L380.557 208.75Z" fill="#7161EF"/>
</svg>
