<svg width="541" height="447" viewBox="0 0 541 447" fill="none" xmlns="http://www.w3.org/2000/svg">
<path d="M109 264H105V268V274H16C9.37259 274 4 268.627 4 262V16C4 9.37258 9.37258 4 16 4H525C531.627 4 537 9.37258 537 16V262C537 268.627 531.627 274 525 274H427V268V264H423H394H390V268V274H142V268V264H138H109ZM419 272V274H398V272H419ZM398 282H419V443H398V282ZM113 282H134V443H113V282ZM134 274H113V272H134V274Z" fill="white" stroke="#7161EF" stroke-width="8"/>
<path d="M62 208C61.7333 207.733 61.4667 207.6 61.2 207.6C60.8 207.6 60.4667 207.667 60.2 207.8C59.9333 207.933 59.6667 208 59.4 208C55.9333 208 52.8667 206.8 50.2 204.4C47.6667 201.867 45.8 199 44.6 195.8C46.6 195.8 48 195 48.8 193.4C49.7333 191.667 50.6 189.333 51.4 186.4C51.9333 183.6 52.5333 182.2 53.2 182.2L70.4 192.2C70.6667 192.2 71.0667 192.133 71.6 192C72.2667 191.867 73.0667 191.8 74 191.8C75.6 191.8 76.4667 192.2 76.6 193L81.4 192.8C83.8 192.8 85.5333 193.067 86.6 193.6C87.6667 194.133 88.4667 194.4 89 194.4C97 194.4 104.733 193 112.2 190.2C119.8 187.267 123.6 182.333 123.6 175.4C123.6 172.467 122.733 169.2 121 165.6C119.267 162 117.2 159.733 114.8 158.8L60.6 135.2C55.5333 133.067 51.8 129.667 49.4 125C47 120.2 45.8 114.733 45.8 108.6C45.8 105.8 46.3333 103.2 47.4 100.8C48.6 98.2667 49.8667 96 51.2 94C52.6667 91.8667 53.6667 90.4 54.2 89.6C58.3333 84.1333 64.1333 80.2667 71.6 78C79.2 75.7333 87.3333 74.6 96 74.6C97.0667 74.6 98.6667 74.8667 100.8 75.4C103.067 75.8 106.133 76 110 76C113.333 76.5333 117.2 77.2667 121.6 78.2C126.133 79 128.467 79.4667 128.6 79.6L132.2 83.4V98.2C132.2 98.8667 131.6 100.133 130.4 102C129.2 103.733 128.333 104.6 127.8 104.6C126.333 103.933 122.867 102.267 117.4 99.6C111.267 96.5333 106.267 94.2667 102.4 92.8C98.6667 91.2 94.8 90.4 90.8 90.4C83.4667 90.4 76.8 92 70.8 95.2C64.9333 98.2667 62 103.2 62 110C62 112 63 114.333 65 117C67.1333 119.533 69.6 121.8 72.4 123.8C75.2 125.667 77.4 126.6 79 126.6L81.6 126.4C85.0667 127.467 88.8667 129.4 93 132.2C96.2 134.467 99.1333 136.133 101.8 137.2C104.6 138.267 108.133 138.8 112.4 138.8C116.933 139.733 121.467 141.667 126 144.6C130.667 147.533 134.533 151.133 137.6 155.4C140.667 159.533 142.2 163.867 142.2 168.4C142.2 170.4 141.933 172.333 141.4 174.2C140.867 175.933 140.533 177 140.4 177.4C139.6 179.133 139 181.133 138.6 183.4C136.867 189.8 135.533 194.067 134.6 196.2C133.8 198.2 132.267 199.867 130 201.2C127.733 202.533 123.933 203.6 118.6 204.4C118.467 204.533 118.267 204.733 118 205C117.733 205.267 117.533 205.467 117.4 205.6C112.867 207.333 108.667 208.6 104.8 209.4C100.933 210.333 96.9333 210.8 92.8 210.8C88 210.8 82.5333 210.467 76.4 209.8C70.2667 209.267 65.4667 208.667 62 208ZM122.2 92C122.2 93.0667 122.467 93.8667 123 94.4C123.533 94.9333 124.533 95.4 126 95.8L128.6 86C128.6 84.9333 124 83.6 114.8 82C105.733 80.4 99.2 79.6 95.2 79.6C94.9333 79.7333 94.6 80.0667 94.2 80.6C93.9333 81 93.8 81.3333 93.8 81.6C93.8 82.9333 94.8 83.6 96.8 83.6H97.8C99.9333 83.6 101.067 83.0667 101.2 82C101.467 83.2 102.067 84.2 103 85C103.933 85.8 104.933 86.2 106 86.2C106.933 86.2 107.533 86.1333 107.8 86C108.2 85.7333 108.467 85.2667 108.6 84.6L112.4 88.2L116.2 84.6V88.6C116.6 88.4667 117.333 88.2 118.4 87.8C119.6 87.2667 120.867 86.6667 122.2 86L123.6 86.2C123.6 86.8667 123.333 87.8667 122.8 89.2C122.4 90.5333 122.2 91.4667 122.2 92ZM85.2 82C85.4667 82.2667 85.8667 82.5333 86.4 82.8C86.9333 83.0667 87.3333 83.2667 87.6 83.4C88.4 83.4 89.3333 83.2 90.4 82.8C91.4667 82.2667 92 81.6667 92 81C91.3333 81 90.3333 81.1333 89 81.4C87.6667 81.5333 86.4 81.7333 85.2 82ZM75.8 83.2C74.0667 83.2 71.9333 83.7333 69.4 84.8C66.8667 85.7333 65.6 86.8 65.6 88C65.6 88.2667 66.1333 88.4 67.2 88.4C68.5333 88.4 70.2667 87.8667 72.4 86.8C74.6667 85.6 75.8 84.4 75.8 83.2ZM120.4 88.2C120 88.3333 119.533 88.6667 119 89.2C118.6 89.6 118.4 90 118.4 90.4L118.6 90.8L121 88.2H120.4ZM63 90.8C61.4 91.3333 59.9333 92.4 58.6 94C57.4 95.4667 56.8 97 56.8 98.6C58.6667 98.6 60.1333 97.8667 61.2 96.4C62.4 94.9333 63 93.0667 63 90.8ZM58 100.2C55.0667 100.2 53.4667 100.8 53.2 102H58V100.2ZM51.8 104.4C51.8 105.333 52 106.267 52.4 107.2C52.9333 108 53.5333 108.4 54.2 108.4C55.1333 108.4 55.8667 108 56.4 107.2C56.9333 106.267 57.2 105.333 57.2 104.4H51.8ZM51.6 111.6C51.6 114.267 52.3333 115.6 53.8 115.6C55.2667 115.6 56 114.267 56 111.6H51.6ZM54.2 118C55 118 55.6667 117.867 56.2 117.6C56.8667 117.2 57.2 116.667 57.2 116L57 115.6L53.2 117.8L54.2 118ZM54.2 121.6H57V120.4H54.2V121.6ZM60 121.4C59.7333 121.4 59.3333 121.733 58.8 122.4C58.4 122.933 58.1333 123.533 58 124.2L59.4 124.4C60.7333 124.4 61.6 123.933 62 123C61.7333 122.467 61.4 122.067 61 121.8C60.6 121.533 60.2667 121.4 60 121.4ZM60.2 127.4C60.2 127.667 60.6 128 61.4 128.4C62.2 128.667 62.7333 128.933 63 129.2C65 129.2 66 127.867 66 125.2C64.8 125.2 63.5333 125.4 62.2 125.8C61 126.2 60.4 126.667 60.4 127.2L60.2 127.4ZM68.6 127.6C67.9333 127.6 67.4667 127.933 67.2 128.6C67.0667 129.267 66.9333 129.733 66.8 130H72.2C72.2 129.333 71.8 128.8 71 128.4C70.2 127.867 69.4 127.6 68.6 127.6ZM72.8 132.8C73.2 133.2 74 133.733 75.2 134.4C76.5333 134.933 77.4667 135.2 78 135.2C78.2667 135.2 78.7333 134.933 79.4 134.4C80.0667 133.733 80.4 133.2 80.4 132.8L79 131.6L72.8 132.8ZM81.4 133.8C81.4 135.4 81.9333 136.333 83 136.6C84.2 136.867 85.9333 137 88.2 137C88.2 134.867 85.9333 133.8 81.4 133.8ZM93.8 140.2C95.5333 141.933 97.2667 142.8 99 142.8L100.2 142.6C96.7333 141 94.6 140.2 93.8 140.2ZM107.6 146.4L108.6 145H106L107.6 146.4ZM110 147.6C111.067 148.933 112.4 150.2 114 151.4C115.6 152.467 117.133 153 118.6 153V151.2H117.4C117.667 150.933 117.933 150.6 118.2 150.2C118.467 149.8 118.6 149.467 118.6 149.2C118.6 147.2 117.133 146.2 114.2 146.2H113.2C111.2 146.2 110.133 146.667 110 147.6ZM124.2 152.4C121.8 152.4 120.6 153.2 120.6 154.8H129.2C129.2 153.2 127.533 152.4 124.2 152.4ZM130.8 163.6C128.933 163.867 128 164.933 128 166.8C129.2 166.8 130.4 166.467 131.6 165.8C132.8 165 133.8 164.133 134.6 163.2C135.4 162.267 135.8 161.667 135.8 161.4C135.8 160.067 135.267 159.067 134.2 158.4C133.133 157.733 132 157.4 130.8 157.4C130 157.533 128.8 157.867 127.2 158.4C125.6 158.933 124.8 159.4 124.8 159.8V161.2L130.8 163.6ZM129.6 170.4C129.6 171.733 130.533 172.4 132.4 172.4C134.933 172.4 136.4 171.867 136.8 170.8C137.333 169.6 137.6 167.467 137.6 164.4C136.267 164.4 134.6 165.133 132.6 166.6C130.6 167.933 129.6 169.2 129.6 170.4ZM130.8 182.2C128.933 182.467 128 183.467 128 185.2C130.4 185.2 132.133 184.267 133.2 182.4C134.4 180.533 135 178.267 135 175.6C134.067 175.6 132.933 176 131.6 176.8C130.267 177.467 129.6 178.2 129.6 179C129.6 179.8 130 180.867 130.8 182.2ZM93.8 199.4C93.8 200.867 94.4667 202.133 95.8 203.2C97.1333 204.133 98.5333 204.6 100 204.6H100.6C102.467 204.6 103.533 204.067 103.8 203C111.267 201.933 117.467 200.467 122.4 198.6C127.467 196.733 130.267 193.267 130.8 188.2C129.867 187.4 128.6 187 127 187C126.467 187 125.667 188.133 124.6 190.4C123.667 192.533 122.667 194.2 121.6 195.4C120.667 196.6 119.467 197.2 118 197.2C117.733 197.2 117.267 197 116.6 196.6C115.933 196.067 115.333 195.8 114.8 195.8C112.933 195.8 110.267 196.067 106.8 196.6C105.867 196.733 104.867 196.867 103.8 197C102.733 197.133 101.667 197.2 100.6 197.2C98.2 197.2 96.8 197.133 96.4 197C96 197.267 95.4667 197.667 94.8 198.2C94.2667 198.6 93.9333 199 93.8 199.4ZM55.4 198.6C55.4 199.933 55.7333 200.867 56.4 201.4C57.0667 201.8 58.0667 202 59.4 202C60.3333 202 61.2 201.667 62 201C62.8 200.2 63.2 199 63.2 197.4L63 197L58 199.4L57 199V198.2C57.2667 198.067 58.2 197.667 59.8 197C61.5333 196.2 62.6 195.333 63 194.4C62.8667 194.133 62.4 193.867 61.6 193.6C60.9333 193.2 60.2667 193 59.6 193C58.2667 193 57.2 193.667 56.4 195C55.7333 196.333 55.4 197.533 55.4 198.6ZM69.4 195.8C67.5333 195.8 66.1333 196.4 65.2 197.6C64.4 198.667 64 200.067 64 201.8H66.8L65.6 200.8C66.5333 200.133 67.4 199.267 68.2 198.2C69 197.133 69.4 196.333 69.4 195.8ZM69.4 201.8C69.8 201.933 70.4 202.2 71.2 202.6C72.1333 203 73.2 203.2 74.4 203.2C75.8667 203.2 77.0667 202.533 78 201.2C78.9333 199.867 79.4 198.4 79.4 196.8C72.7333 196.8 69.4 198.467 69.4 201.8ZM87.6 198.2C84.8 198.2 83 198.667 82.2 199.6C81.4 200.4 81 202 81 204.4H91.4C91.5333 204.267 91.7333 204.067 92 203.8C92.2667 203.533 92.4667 203.267 92.6 203C92.6 201.133 92.2 199.867 91.4 199.2C90.6 198.533 89.3333 198.2 87.6 198.2ZM100.8 200.6C101.067 200.6 101.6 201 102.4 201.8H100.2V200.8L100.8 200.6ZM199.947 162C204.08 168 209.28 175 215.547 183C223.147 193.133 227.414 198.867 228.347 200.2C228.88 200.867 229.214 201.533 229.347 202.2C229.48 202.733 229.547 203.333 229.547 204C229.547 205.733 229.147 206.6 228.347 206.6H212.147C211.88 205.4 210.347 204.8 207.547 204.8C202.614 199.733 198.614 195.333 195.547 191.6C192.614 187.867 190.347 183.4 188.747 178.2L181.347 170.8H179.947L180.147 185.6C180.147 190.267 179.88 195.133 179.347 200.2C178.814 205.267 177.88 207.8 176.547 207.8H162.947C162.814 207.533 162.614 207.133 162.347 206.6C162.08 206.067 161.88 205.6 161.747 205.2C160.814 193.6 160.347 175.733 160.347 151.6V122.6C160.48 122.333 160.747 121.867 161.147 121.2C161.547 120.533 161.747 119.933 161.747 119.4C161.747 119 161.08 117.933 159.747 116.2C158.547 114.467 157.947 113.533 157.947 113.4C157.947 113.133 158.08 112.667 158.347 112C158.614 111.2 158.947 110.6 159.347 110.2C159.347 104.733 159.614 96.8 160.147 86.4C160.814 76 161.347 70.8 161.747 70.8H177.747L178.947 72C178.814 73.3333 178.747 75.3333 178.747 78C178.747 82.4 178.947 87.2 179.347 92.4C179.747 97.6 180.014 101 180.147 102.6C181.08 112.2 181.547 120.333 181.547 127L181.347 136.8C181.347 141.733 181.814 146.467 182.747 151C187.014 147.133 192.147 141.6 198.147 134.4C204.147 127.067 209.28 121.533 213.547 117.8C214.08 117.533 215.147 117.267 216.747 117C218.48 116.6 219.88 116.4 220.947 116.4C223.747 116.4 225.88 116.667 227.347 117.2C228.814 117.733 229.547 119 229.547 121C229.547 122.2 229.414 123.067 229.147 123.6C228.88 124.133 228.214 125.067 227.147 126.4C217.014 137.6 207.947 149.467 199.947 162ZM169.347 77C168.014 77 167.147 77.8 166.747 79.4C166.48 81 166.347 82.4667 166.347 83.8C166.347 85 166.347 85.7333 166.347 86C170.747 86 172.947 84.2 172.947 80.6C172.947 79.1333 172.747 78.2 172.347 77.8C171.947 77.2667 170.947 77 169.347 77ZM174.147 104.6C174.147 102.6 173.88 101.267 173.347 100.6C172.947 99.8 172.747 99.2667 172.747 99C172.88 98.8667 173.08 98.5333 173.347 98C173.614 97.4667 173.814 97 173.947 96.6C173.947 93 173.547 89.3333 172.747 85.6L166.547 88.2V110.6C171.614 110.6 174.147 108.6 174.147 104.6ZM218.547 122.4C216.68 122.4 215.747 123.067 215.747 124.4C215.747 124.8 215.947 125.267 216.347 125.8C216.88 126.2 217.347 126.4 217.747 126.4C218.68 126.4 219.747 125.533 220.947 123.8C220.68 123.133 220.347 122.733 219.947 122.6C219.68 122.467 219.214 122.4 218.547 122.4ZM166.547 127.4C168.414 126.333 169.347 125.133 169.347 123.8H166.547V127.4ZM171.747 130L173.947 131.2V128.8L171.747 130ZM213.547 128.8C213.414 128.8 212.147 129.2 209.747 130H214.947C214.814 129.733 214.614 129.533 214.347 129.4C214.08 129.133 213.814 128.933 213.547 128.8ZM214.747 201.6C215.814 201.6 217.414 201.133 219.547 200.2C217.68 200.2 216.747 199.4 216.747 197.8C216.747 197.533 216.88 197.133 217.147 196.6C216.88 196.067 216.014 194.467 214.547 191.8C213.214 189.133 211.547 186.8 209.547 184.8C207.547 182.8 205.547 181.8 203.547 181.8C203.814 181.667 204.08 181.533 204.347 181.4C204.747 181.133 204.947 180.8 204.947 180.4C204.947 178.8 203.88 177.6 201.747 176.8C199.747 175.867 197.88 175.267 196.147 175H201.347C200.947 174.2 200.48 173.333 199.947 172.4C199.414 171.467 198.947 170.867 198.547 170.6C198.28 170.6 197.814 170.8 197.147 171.2C196.48 171.6 196.014 171.8 195.747 171.8C195.747 168.467 195.347 166.2 194.547 165C193.88 163.667 192.08 162.4 189.147 161.2H189.547C191.28 161.2 193.747 159.267 196.947 155.4C200.147 151.533 203.28 147.2 206.347 142.4C209.414 137.6 211.347 134.333 212.147 132.6H208.547C204.947 137.4 201.947 141.133 199.547 143.8C197.147 146.333 194.414 148.333 191.347 149.8L192.547 151C191.48 151.533 190.347 152.4 189.147 153.6C188.347 154.4 187.547 155 186.747 155.4C185.947 155.8 184.88 156 183.547 156C182.614 155.733 181.214 155.2 179.347 154.4C177.48 153.467 176.147 152.733 175.347 152.2C175.347 152.2 174.88 152.667 173.947 153.6C173.947 154.267 175.214 155.933 177.747 158.6C180.28 161.267 182.88 163.933 185.547 166.6C190.214 171 192.547 173.4 192.547 173.8C192.547 174.867 193.68 176.867 195.947 179.8C198.347 182.733 199.814 184.533 200.347 185.2C203.947 189.6 205.88 192.2 206.147 193C206.68 195 207.814 196.933 209.547 198.8C211.28 200.667 213.014 201.6 214.747 201.6ZM167.947 138.6H166.547V139.8L167.947 138.6ZM175.747 141C173.747 141 172.747 141.867 172.747 143.6C173.68 143.467 174.414 143.2 174.947 142.8C175.48 142.267 175.747 141.667 175.747 141ZM169.147 149.8C167.947 149.8 167.08 150.2 166.547 151C166.014 151.8 165.747 152.733 165.747 153.8C167.747 153.8 168.88 152.467 169.147 149.8ZM188.747 161L189.147 161.2L188.747 161ZM172.547 167C172.547 166.733 172.48 166.467 172.347 166.2C172.214 165.933 172.014 165.8 171.747 165.8C171.08 165.8 170.747 166.2 170.747 167C170.747 167.8 171.08 168.2 171.747 168.2C172.014 168.2 172.214 168.067 172.347 167.8C172.48 167.533 172.547 167.267 172.547 167ZM168.547 188.2C168.947 188.2 169.614 187.067 170.547 184.8C171.48 182.533 171.947 181.067 171.947 180.4C170.614 180.4 169.347 180.733 168.147 181.4C167.08 182.067 166.547 183 166.547 184.2C166.547 186.867 167.214 188.2 168.547 188.2ZM170.147 203.6C171.214 203.6 172.08 203.333 172.747 202.8C173.547 202.133 173.947 201.267 173.947 200.2C173.947 200.067 173.747 199.667 173.347 199C173.08 198.333 172.88 197.933 172.747 197.8C171.014 199 170.147 200.933 170.147 203.6ZM261.622 73.2C261.755 72.9333 263.155 72.6667 265.822 72.4C268.489 72 270.755 71.8 272.622 71.8C273.689 71.8 274.955 72.1333 276.422 72.8C278.022 73.3333 278.822 73.8667 278.822 74.4V89.2C278.822 90.9333 277.622 91.8 275.222 91.8C272.022 91.8 268.489 91.5333 264.622 91C260.889 90.4667 259.022 89.4667 259.022 88V75.4L261.622 73.2ZM263.422 78C263.422 79.3333 263.689 80.7333 264.222 82.2C264.755 83.5333 265.622 84.2 266.822 84.2C269.222 84.2 270.889 84 271.822 83.6C272.889 83.2 273.422 82.2 273.422 80.6C273.422 79.9333 273.155 79.0667 272.622 78C272.222 78.1333 271.689 78.4 271.022 78.8C270.489 79.2 269.822 79.4 269.022 79.4L270.422 78H263.422ZM264.022 205C263.755 204.067 263.155 202.933 262.222 201.6C261.289 200.267 260.689 199 260.422 197.8C258.555 190.067 257.355 182 256.822 173.6C256.289 165.067 256.022 155 256.022 143.4V137C256.022 128.6 256.755 122.2 258.222 117.8C259.689 113.4 262.889 111.2 267.822 111.2C272.755 111.2 276.089 113.333 277.822 117.6C279.689 121.733 280.622 127.133 280.622 133.8C280.622 141.133 280.089 149.2 279.022 158C278.089 164.8 277.622 170.8 277.622 176C277.622 179.333 277.889 184.2 278.422 190.6C278.555 192.2 278.689 194.133 278.822 196.4C278.955 198.667 279.022 201.333 279.022 204.4C279.022 206.533 278.155 207.6 276.422 207.6C274.822 207.333 272.755 206.933 270.222 206.4C267.822 205.867 265.755 205.4 264.022 205ZM266.022 123.8C271.355 123.8 274.022 123 274.022 121.4C274.022 119.8 273.822 118.733 273.422 118.2C273.155 117.667 272.555 117.4 271.622 117.4C271.355 117.4 270.755 117.667 269.822 118.2C268.889 118.6 268.222 118.8 267.822 118.8C267.555 118.8 267.222 118.6 266.822 118.2C266.422 117.667 265.889 117.4 265.222 117.4C264.289 117.4 263.555 117.6 263.022 118C262.622 118.267 262.155 118.933 261.622 120C262.689 121.067 263.689 121.6 264.622 121.6L265.222 121.4L264.022 123.8H266.022ZM261.422 129.6C261.422 129.867 261.555 130.2 261.822 130.6C262.222 130.867 262.555 131 262.822 131C264.022 131 265.489 130.133 267.222 128.4C268.955 126.533 270.022 125.4 270.422 125H269.622C268.555 125 266.955 125.333 264.822 126C262.689 126.667 261.622 127.8 261.622 129.4L261.422 129.6ZM274.422 125.4C270.955 125.4 267.489 128.467 264.022 134.6C265.889 133.933 268.022 133.6 270.422 133.6C271.622 133.6 272.489 133.467 273.022 133.2C273.555 132.933 273.889 132.267 274.022 131.2C274.289 130 274.422 128.067 274.422 125.4ZM261.622 142C261.622 142.267 261.755 142.6 262.022 143C262.422 143.267 262.689 143.4 262.822 143.4C265.755 141.8 268.622 139.4 271.422 136.2L269.622 136C267.489 136 265.622 136.533 264.022 137.6C262.422 138.533 261.622 140 261.622 142ZM274.022 137.4C270.422 139.267 267.955 141.667 266.622 144.6L268.422 144.8C269.355 144.8 270.489 144.733 271.822 144.6C273.289 144.333 274.022 143.933 274.022 143.4V137.4ZM266.622 156C272.622 156 275.622 153.067 275.622 147.2H274.022L266.622 154.6V156ZM266.622 148.2C263.955 148.2 262.622 149.333 262.622 151.6L262.822 153.6L267.822 148.4L266.622 148.2ZM269.222 158C267.489 158 265.822 158.533 264.222 159.6C262.622 160.667 261.822 162 261.822 163.6C263.289 163.6 264.889 163.067 266.622 162C268.355 160.8 269.222 159.467 269.222 158ZM272.622 159.4C272.089 159.667 270.622 160.867 268.222 163C265.955 165.133 264.155 166.867 262.822 168.2H272.622C273.422 168.2 273.889 167.4 274.022 165.8C274.289 164.067 274.422 161.933 274.422 159.4H272.622ZM262.822 173C262.822 174.733 263.222 175.6 264.022 175.6L270.422 170.6V169.4C265.355 170.067 262.822 171.267 262.822 173ZM264.022 180.8C267.355 180.8 269.622 180.133 270.822 178.8C272.155 177.467 272.822 175.133 272.822 171.8H271.422L264.022 179.2V180.8ZM264.022 185.4C264.022 185.8 264.155 186.267 264.422 186.8C264.689 187.2 264.955 187.533 265.222 187.8L270.422 183L268.422 182.8C265.889 182.8 264.422 183.667 264.022 185.4ZM264.022 196.6C264.555 198.067 265.622 199 267.222 199.4C268.955 199.667 270.955 199.8 273.222 199.8C273.222 198.6 272.822 197.6 272.022 196.8C271.355 195.867 271.022 195.333 271.022 195.2C271.022 195.2 271.422 195 272.222 194.6C273.022 194.2 273.422 191.133 273.422 185.4H270.422C270.155 185.4 269.155 186.467 267.422 188.6C265.822 190.733 265.022 192.067 265.022 192.6V192.8H270.422L264.022 196.6ZM339.245 195C341.912 195.933 343.245 196.8 343.245 197.6C343.245 198.4 342.179 201.4 340.045 206.6C338.845 209 338.245 210.4 338.245 210.8L335.645 211.8V210.2C334.045 210.2 332.579 210.267 331.245 210.4C329.912 210.533 328.645 210.6 327.445 210.6C325.579 210.6 324.112 210.2 323.045 209.4C322.112 208.733 321.645 207.267 321.645 205C318.179 205 315.579 203.733 313.845 201.2C312.112 198.667 310.312 194.867 308.445 189.8C307.512 177.8 306.845 165.533 306.445 153C306.179 140.333 306.045 125.467 306.045 108.4V95.6C306.045 84 306.512 74.2667 307.445 66.4C309.712 65.2 312.579 64.4 316.045 64C316.579 63.8667 317.779 63.6667 319.645 63.4C321.512 63 323.179 62.4 324.645 61.6L325.245 61.4C326.445 61.4 327.045 62.1333 327.045 63.6C327.045 74.2667 326.645 90.4 325.845 112C325.312 122.533 324.912 133.267 324.645 144.2C324.645 147.133 324.379 151.133 323.845 156.2C323.712 157.267 323.579 158.667 323.445 160.4C323.312 162.133 323.245 164.2 323.245 166.6C323.245 175.267 324.312 182.2 326.445 187.4C328.579 192.467 332.845 195 339.245 195ZM319.845 70.4C316.379 70.4 314.112 71.2667 313.045 73C311.979 74.6 311.445 77.3333 311.445 81.2H314.245C314.245 81.4667 314.312 81.6667 314.445 81.8C314.579 81.9333 314.645 82.0667 314.645 82.2C314.645 82.4667 314.312 82.8 313.645 83.2C313.112 83.4667 312.645 83.6 312.245 83.6V91C312.645 90.4667 313.445 89.4 314.645 87.8C315.979 86.0667 316.845 85.1333 317.245 85C317.112 85.4 316.845 86.2667 316.445 87.6C316.045 88.8 315.445 89.9333 314.645 91C314.779 91 315.045 91.0667 315.445 91.2C315.845 91.2 316.312 91.2 316.845 91.2C318.845 91.2 319.845 90.8 319.845 90V70.4ZM312.245 132C312.645 132.667 313.912 133 316.045 133C315.645 133.533 315.112 134 314.445 134.4C313.779 134.667 313.245 135 312.845 135.4C312.445 135.8 312.245 136.4 312.245 137.2C312.245 138.267 312.512 139.333 313.045 140.4C313.579 141.467 313.845 142.733 313.845 144.2H318.445V137.8H316.045C317.645 135.667 318.445 132.667 318.445 128.8C318.445 128 318.245 126.933 317.845 125.6C317.445 124.267 317.245 123.2 317.245 122.4L318.445 117.4C319.379 114.333 319.845 111.267 319.845 108.2C319.712 107.8 319.512 107.4 319.245 107C318.979 106.467 318.712 106.067 318.445 105.8C318.445 107.667 317.645 108.6 316.045 108.6L314.645 108.2C315.579 107.8 316.179 107.2 316.445 106.4C316.712 105.6 316.845 104.6 316.845 103.4H319.845V96C319.045 96.9333 317.912 98.0667 316.445 99.4C315.112 100.6 314.312 101.2 314.045 101.2L313.445 101C315.979 98.2 317.645 95.7333 318.445 93.6C316.979 93.6 315.379 93.8 313.645 94.2C311.912 94.4667 311.045 95.2 311.045 96.4C311.045 99.4667 311.445 101.6 312.245 102.8C313.045 104 313.445 104.667 313.445 104.8C313.445 105.067 313.045 106.133 312.245 108C311.445 109.733 311.045 111.067 311.045 112C311.312 111.867 311.645 111.667 312.045 111.4C312.579 111 313.045 110.8 313.445 110.8C313.712 110.8 313.979 111 314.245 111.4C314.512 111.667 314.645 111.867 314.645 112C314.245 112.4 313.779 113.067 313.245 114C312.712 114.933 312.379 115.667 312.245 116.2C312.245 117 312.579 117.533 313.245 117.8C314.045 117.933 314.512 118.067 314.645 118.2C313.179 118.6 312.245 119.667 311.845 121.4C311.579 123.133 311.445 125.067 311.445 127.2C312.512 127.2 313.379 126.933 314.045 126.4C314.712 125.733 315.179 125.4 315.445 125.4L316.045 125.6C315.645 126.667 314.979 127.867 314.045 129.2C313.245 130.533 312.645 131.467 312.245 132ZM318.645 146.4C316.779 146.4 315.445 146.933 314.645 148C313.845 149.067 313.445 150.667 313.445 152.8C313.712 152.533 314.379 152.067 315.445 151.4C316.645 150.733 317.445 150 317.845 149.2C318.379 148.4 318.645 147.467 318.645 146.4ZM317.245 194.8C317.912 194.8 318.712 193.4 319.645 190.6C320.579 187.8 321.045 185.867 321.045 184.8C321.045 183.467 320.845 182.6 320.445 182.2C320.179 181.8 319.512 181.6 318.445 181.6V161.4L317.245 160.2C318.312 160.2 318.845 157.6 318.845 152.4C317.512 152.4 316.245 153.133 315.045 154.6C313.845 155.933 313.245 157.333 313.245 158.8C313.245 158.933 313.445 159.2 313.845 159.6C314.379 159.867 314.645 160.067 314.645 160.2L313.445 161.4V170C314.379 170.267 314.845 171.133 314.845 172.6C314.845 173.533 314.645 175 314.245 177C313.712 178.333 313.445 179.8 313.445 181.4C313.445 182.867 314.112 184.267 315.445 185.6C316.779 186.933 317.445 188.067 317.445 189C317.445 189.4 317.045 190.133 316.245 191.2C315.445 192.133 314.912 192.933 314.645 193.6C314.779 193.6 315.179 193.8 315.845 194.2C316.512 194.6 316.979 194.8 317.245 194.8ZM333.245 203.4C333.379 203.267 333.645 203 334.045 202.6C334.579 202.2 334.845 201.733 334.845 201.2C334.845 200.933 333.779 200.267 331.645 199.2C329.512 198.133 327.979 197.4 327.045 197C326.645 197 325.979 197.267 325.045 197.8C324.112 198.2 323.112 198.4 322.045 198.4C322.445 198.267 322.912 197.867 323.445 197.2C324.112 196.533 324.512 196.133 324.645 196C324.645 195.067 324.379 194.133 323.845 193.2C323.445 192.267 322.845 191.6 322.045 191.2C321.645 191.2 320.979 192 320.045 193.6C319.245 195.067 318.712 196.2 318.445 197C318.445 199.8 320.112 202 323.445 203.6C326.779 205.2 329.845 206 332.645 206C333.445 206 334.112 205.467 334.645 204.4L333.245 203.4ZM396.277 195C398.943 195.933 400.277 196.8 400.277 197.6C400.277 198.4 399.21 201.4 397.077 206.6C395.877 209 395.277 210.4 395.277 210.8L392.677 211.8V210.2C391.077 210.2 389.61 210.267 388.277 210.4C386.943 210.533 385.677 210.6 384.477 210.6C382.61 210.6 381.143 210.2 380.077 209.4C379.143 208.733 378.677 207.267 378.677 205C375.21 205 372.61 203.733 370.877 201.2C369.143 198.667 367.343 194.867 365.477 189.8C364.543 177.8 363.877 165.533 363.477 153C363.21 140.333 363.077 125.467 363.077 108.4V95.6C363.077 84 363.543 74.2667 364.477 66.4C366.743 65.2 369.61 64.4 373.077 64C373.61 63.8667 374.81 63.6667 376.677 63.4C378.543 63 380.21 62.4 381.677 61.6L382.277 61.4C383.477 61.4 384.077 62.1333 384.077 63.6C384.077 74.2667 383.677 90.4 382.877 112C382.343 122.533 381.943 133.267 381.677 144.2C381.677 147.133 381.41 151.133 380.877 156.2C380.743 157.267 380.61 158.667 380.477 160.4C380.343 162.133 380.277 164.2 380.277 166.6C380.277 175.267 381.343 182.2 383.477 187.4C385.61 192.467 389.877 195 396.277 195ZM376.877 70.4C373.41 70.4 371.143 71.2667 370.077 73C369.01 74.6 368.477 77.3333 368.477 81.2H371.277C371.277 81.4667 371.343 81.6667 371.477 81.8C371.61 81.9333 371.677 82.0667 371.677 82.2C371.677 82.4667 371.343 82.8 370.677 83.2C370.143 83.4667 369.677 83.6 369.277 83.6V91C369.677 90.4667 370.477 89.4 371.677 87.8C373.01 86.0667 373.877 85.1333 374.277 85C374.143 85.4 373.877 86.2667 373.477 87.6C373.077 88.8 372.477 89.9333 371.677 91C371.81 91 372.077 91.0667 372.477 91.2C372.877 91.2 373.343 91.2 373.877 91.2C375.877 91.2 376.877 90.8 376.877 90V70.4ZM369.277 132C369.677 132.667 370.943 133 373.077 133C372.677 133.533 372.143 134 371.477 134.4C370.81 134.667 370.277 135 369.877 135.4C369.477 135.8 369.277 136.4 369.277 137.2C369.277 138.267 369.543 139.333 370.077 140.4C370.61 141.467 370.877 142.733 370.877 144.2H375.477V137.8H373.077C374.677 135.667 375.477 132.667 375.477 128.8C375.477 128 375.277 126.933 374.877 125.6C374.477 124.267 374.277 123.2 374.277 122.4L375.477 117.4C376.41 114.333 376.877 111.267 376.877 108.2C376.743 107.8 376.543 107.4 376.277 107C376.01 106.467 375.743 106.067 375.477 105.8C375.477 107.667 374.677 108.6 373.077 108.6L371.677 108.2C372.61 107.8 373.21 107.2 373.477 106.4C373.743 105.6 373.877 104.6 373.877 103.4H376.877V96C376.077 96.9333 374.943 98.0667 373.477 99.4C372.143 100.6 371.343 101.2 371.077 101.2L370.477 101C373.01 98.2 374.677 95.7333 375.477 93.6C374.01 93.6 372.41 93.8 370.677 94.2C368.943 94.4667 368.077 95.2 368.077 96.4C368.077 99.4667 368.477 101.6 369.277 102.8C370.077 104 370.477 104.667 370.477 104.8C370.477 105.067 370.077 106.133 369.277 108C368.477 109.733 368.077 111.067 368.077 112C368.343 111.867 368.677 111.667 369.077 111.4C369.61 111 370.077 110.8 370.477 110.8C370.743 110.8 371.01 111 371.277 111.4C371.543 111.667 371.677 111.867 371.677 112C371.277 112.4 370.81 113.067 370.277 114C369.743 114.933 369.41 115.667 369.277 116.2C369.277 117 369.61 117.533 370.277 117.8C371.077 117.933 371.543 118.067 371.677 118.2C370.21 118.6 369.277 119.667 368.877 121.4C368.61 123.133 368.477 125.067 368.477 127.2C369.543 127.2 370.41 126.933 371.077 126.4C371.743 125.733 372.21 125.4 372.477 125.4L373.077 125.6C372.677 126.667 372.01 127.867 371.077 129.2C370.277 130.533 369.677 131.467 369.277 132ZM375.677 146.4C373.81 146.4 372.477 146.933 371.677 148C370.877 149.067 370.477 150.667 370.477 152.8C370.743 152.533 371.41 152.067 372.477 151.4C373.677 150.733 374.477 150 374.877 149.2C375.41 148.4 375.677 147.467 375.677 146.4ZM374.277 194.8C374.943 194.8 375.743 193.4 376.677 190.6C377.61 187.8 378.077 185.867 378.077 184.8C378.077 183.467 377.877 182.6 377.477 182.2C377.21 181.8 376.543 181.6 375.477 181.6V161.4L374.277 160.2C375.343 160.2 375.877 157.6 375.877 152.4C374.543 152.4 373.277 153.133 372.077 154.6C370.877 155.933 370.277 157.333 370.277 158.8C370.277 158.933 370.477 159.2 370.877 159.6C371.41 159.867 371.677 160.067 371.677 160.2L370.477 161.4V170C371.41 170.267 371.877 171.133 371.877 172.6C371.877 173.533 371.677 175 371.277 177C370.743 178.333 370.477 179.8 370.477 181.4C370.477 182.867 371.143 184.267 372.477 185.6C373.81 186.933 374.477 188.067 374.477 189C374.477 189.4 374.077 190.133 373.277 191.2C372.477 192.133 371.943 192.933 371.677 193.6C371.81 193.6 372.21 193.8 372.877 194.2C373.543 194.6 374.01 194.8 374.277 194.8ZM390.277 203.4C390.41 203.267 390.677 203 391.077 202.6C391.61 202.2 391.877 201.733 391.877 201.2C391.877 200.933 390.81 200.267 388.677 199.2C386.543 198.133 385.01 197.4 384.077 197C383.677 197 383.01 197.267 382.077 197.8C381.143 198.2 380.143 198.4 379.077 198.4C379.477 198.267 379.943 197.867 380.477 197.2C381.143 196.533 381.543 196.133 381.677 196C381.677 195.067 381.41 194.133 380.877 193.2C380.477 192.267 379.877 191.6 379.077 191.2C378.677 191.2 378.01 192 377.077 193.6C376.277 195.067 375.743 196.2 375.477 197C375.477 199.8 377.143 202 380.477 203.6C383.81 205.2 386.877 206 389.677 206C390.477 206 391.143 205.467 391.677 204.4L390.277 203.4ZM488.28 180.6C488.28 180.733 488.413 181 488.68 181.4C489.08 181.667 489.413 181.8 489.68 181.8C488.346 182.733 487.413 184.067 486.88 185.8C486.346 187.533 486.013 188.6 485.88 189C484.146 193.133 482.08 196.267 479.68 198.4C477.413 200.533 474.946 202.067 472.28 203C469.613 203.8 465.813 204.667 460.88 205.6C458.746 205.867 457.213 206.133 456.28 206.4L452.68 206.6L443.68 205.4C443.013 205.4 440.413 204.6 435.88 203C430.546 201.133 427.48 200.2 426.68 200.2C426.013 200.2 425.346 200.467 424.68 201C424.013 201.4 423.413 201.6 422.88 201.6C420.346 201.6 419.08 196.933 419.08 187.6C419.08 183.733 419.746 181.8 421.08 181.8C422.013 182.067 423.213 182.733 424.68 183.8C426.146 184.867 427.213 185.4 427.88 185.4L451.28 190.6C452.88 190.6 454.88 190.067 457.28 189C459.68 187.8 461.746 186.333 463.48 184.6C465.346 182.867 466.28 181.133 466.28 179.4C466.28 177.933 465.213 176.133 463.08 174C461.08 171.867 458.813 169.933 456.28 168.2C453.746 166.467 452.213 165.6 451.68 165.6C450.48 165.6 449.28 165.4 448.08 165C447.013 164.467 446.013 163.933 445.08 163.4C442.946 162.333 441.346 161.8 440.28 161.8C436.146 161.8 432.28 160.333 428.68 157.4C425.08 154.467 422.146 150.8 419.88 146.4C417.746 141.867 416.68 137.467 416.68 133.2C416.68 124.133 421.346 118.267 430.68 115.6C440.146 112.8 449.546 111.4 458.88 111.4C473.546 111.4 480.88 113.133 480.88 116.6V129.8C480.88 131 479.68 131.6 477.28 131.6C471.413 129.2 466.946 127.533 463.88 126.6C460.813 125.533 457.546 125 454.08 125C450.08 125 446.946 126.533 444.68 129.6C442.413 132.533 441.28 136 441.28 140C441.28 140.533 441.68 141.467 442.48 142.8C443.413 144 444.346 144.667 445.28 144.8L466.28 148.6C469.746 149.267 473.28 151.133 476.88 154.2C480.613 157.267 483.68 160.8 486.08 164.8C488.613 168.8 489.88 172.4 489.88 175.6C489.746 176.133 489.413 176.933 488.88 178C488.48 179.067 488.28 179.933 488.28 180.6ZM448.88 118.8H468.48C465.68 118.267 462.946 117.933 460.28 117.8C457.746 117.667 455.48 117.6 453.48 117.6C451.48 117.6 449.946 117.6 448.88 117.6V118.8ZM421.68 134.4C421.68 136.933 422.413 140.133 423.88 144C425.48 147.867 427.413 149.8 429.68 149.8C430.08 149.8 431.146 149.067 432.88 147.6C434.746 146.133 435.946 145.2 436.48 144.8C436.48 142.667 436.213 141.267 435.68 140.6C435.28 139.8 434.28 139.133 432.68 138.6C434.28 138.6 435.413 137.8 436.08 136.2C436.88 134.467 437.413 132.867 437.68 131.4C437.146 131 436.08 130.667 434.48 130.4C432.88 130.133 432.08 129.867 432.08 129.6C432.08 129.467 433.48 128.667 436.28 127.2C439.213 125.733 440.946 124.133 441.48 122.4C444.813 122.4 446.48 121.867 446.48 120.8C446.48 119.467 445.546 118.8 443.68 118.8C441.28 118.8 438.28 119.467 434.68 120.8C431.213 122.133 428.146 124 425.48 126.4C422.946 128.667 421.68 131.333 421.68 134.4ZM470.88 118.8C470.746 118.933 470.546 119.133 470.28 119.4C470.013 119.667 469.88 119.933 469.88 120.2C470.413 120.867 471.08 121.467 471.88 122C472.813 122.4 473.746 122.6 474.68 122.6L475.88 122.4C475.88 121.333 475.346 120.467 474.28 119.8C473.213 119.133 472.08 118.8 470.88 118.8ZM464.88 167C466.213 167 468.213 166.4 470.88 165.2C473.546 164 475.28 162.8 476.08 161.6C476.08 158.933 473.68 157 468.88 155.8C464.213 154.6 458.146 153.6 450.68 152.8C447.613 152.533 445.813 152.333 445.28 152.2C444.48 151.933 443.08 151.267 441.08 150.2C439.08 149 437.946 148.4 437.68 148.4C435.546 148.4 433.48 149.667 431.48 152.2C432.28 153.933 433.68 154.8 435.68 154.8C436.48 154.8 437.546 154.6 438.88 154.2C440.346 153.667 441.613 153.4 442.68 153.4C442.546 153.533 442.013 153.8 441.08 154.2C440.146 154.467 439.413 155.067 438.88 156C439.546 157.067 441.88 158 445.88 158.8C449.88 159.6 452.88 160 454.88 160V162C456.08 162.133 458.08 163.133 460.88 165C463.28 166.333 464.613 167 464.88 167ZM481.48 169C481.48 166.067 480.68 164.6 479.08 164.6C477.746 164.6 475.946 165.467 473.68 167.2C471.413 168.933 470.146 170.133 469.88 170.8C471.213 170.8 472.946 170.533 475.08 170C477.08 169.333 479.213 169 481.48 169ZM484.68 173.2C484.68 172.4 484.48 171.8 484.08 171.4C483.813 171 483.08 170.8 481.88 170.8H481.68C481.28 170.8 479.813 171.867 477.28 174C474.88 176.133 473.68 177.467 473.68 178V179.8C477.146 179.8 479.813 179.533 481.68 179C483.68 178.333 484.68 176.733 484.68 174.2V173.2ZM477.28 191.8C478.88 191.8 480.08 191 480.88 189.4C481.813 187.8 482.28 186.133 482.28 184.4C482.28 183.2 482.146 182.333 481.88 181.8L469.88 185.4C469.213 186.067 468.68 187 468.28 188.2C468.013 189.4 467.68 190.2 467.28 190.6L452.48 196.4V197.2C452.48 199.333 455.013 200.4 460.08 200.4C462.08 200.4 463.346 200.2 463.88 199.8C464.546 199.4 465.08 198.733 465.48 197.8C465.746 196.333 466.746 195.133 468.48 194.2C468.48 195.267 468.613 195.933 468.88 196.2C469.28 196.467 469.946 196.6 470.88 196.6H472.08C473.68 196.6 474.946 196.2 475.88 195.4C475.48 194.733 474.813 194.2 473.88 193.8C473.08 193.267 472.546 192.933 472.28 192.8L474.68 190.6C474.946 191.133 475.28 191.467 475.68 191.6C476.213 191.733 476.746 191.8 477.28 191.8ZM449.48 201.4C449.746 201.4 450.08 201.333 450.48 201.2C451.013 200.933 451.28 200.6 451.28 200.2C450.613 199.933 450.013 199.2 449.48 198C449.08 196.8 448.813 195.933 448.68 195.4H436.48C435.68 193.533 434.213 192.467 432.08 192.2C430.08 191.8 427.346 191.6 423.88 191.6C423.88 194.933 424.746 196.6 426.48 196.6C427.946 196.6 428.813 196.2 429.08 195.4C429.746 196.867 432.746 198.267 438.08 199.6C443.413 200.8 447.213 201.4 449.48 201.4Z" fill="#7161EF"/>
</svg>
